SplineFontDB: 3.0
FontName: Farbod-Regular
FullName: Farbod Regular
FamilyName: Farbod
Weight: Regular
Copyright: Copyright (c) 2016 Copyright Holder (info@font-store.ir), with Reserved Font Name "Farbod"
UComments: "2015-5-13: Created with FontForge (http://fontforge.org)"
Version: Version:3.1.2;RFB:1.2.5;Building:2016-05-21 22:30:09.054693
FONDName: RITA
ItalicAngle: 0
UnderlinePosition: 500
UnderlineWidth: 59
Ascent: 800
Descent: 500
InvalidEm: 0
sfntRevision: 0x00010000
LayerCount: 2
Layer: 0 0 "Back" 1
Layer: 1 0 "Fore" 0
PreferredKerning: 4
XUID: [1021 828 -1901974348 32649]
StyleMap: 0x0040
FSType: 0
OS2Version: 0
OS2_WeightWidthSlopeOnly: 0
OS2_UseTypoMetrics: 0
CreationTime: 1431477301
ModificationTime: 1463853609
PfmFamily: 33
TTFWeight: 400
TTFWidth: 5
LineGap: 100
VLineGap: 0
Panose: 2 0 5 3 0 0 0 0 0 0
OS2TypoAscent: 800
OS2TypoAOffset: 0
OS2TypoDescent: -500
OS2TypoDOffset: 0
OS2TypoLinegap: 100
OS2WinAscent: 1100
OS2WinAOffset: 0
OS2WinDescent: 700
OS2WinDOffset: 0
HheadAscent: 1100
HheadAOffset: 0
HheadDescent: -700
HheadDOffset: 0
OS2SubXSize: 780
OS2SubYSize: 839
OS2SubXOff: -107
OS2SubYOff: 168
OS2SupXSize: 780
OS2SupYSize: 839
OS2SupXOff: 369
OS2SupYOff: 575
OS2StrikeYSize: 59
OS2StrikeYPos: 310
OS2Vendor: 'RITA'
OS2CodePages: 00000040.00000000
OS2UnicodeRanges: 80002003.80002000.00000008.00000000
MacStyle: 0
Lookup: 4 1 1 "'ccmp' Glyph Composition/Decomposition in Arabic lookup 5" { "'ccmp' Glyph Composition/Decomposition in Arabic lookup 5-1"  } ['ccmp' ('DFLT' <'dflt' > 'arab' <'dflt' > ) ]
Lookup: 1 9 0 "'isol' Isolated Forms in Latin lookup 1" { "'isol' Isolated Forms in Latin lookup 1-1"  } ['isol' ('DFLT' <'dflt' > 'arab' <'dflt' > ) ]
Lookup: 1 9 0 "'fina' Terminal Forms in Arabic lookup 3" { "'fina' Terminal Forms in Arabic lookup 3-1"  } ['fina' ('DFLT' <'dflt' > 'arab' <'dflt' > ) ]
Lookup: 1 9 0 "'medi' Medial Forms in Arabic lookup 2" { "'medi' Medial Forms in Arabic lookup 2-1"  } ['medi' ('DFLT' <'dflt' > 'arab' <'dflt' > ) ]

StartChar: _.alef.isol
Encoding: 65536 -1 0
GlifName: _.alef.isol
Width: 231
VWidth: 1304
GlyphClass: 2
Flags: HMW
LayerCount: 2
Fore
SplineSet
75 578 m 2
 75 592 77 607 84 621 c 2
 121 688 l 2
 132 706 146 701 146 687 c 2
 156 155 l 2
 156 151 156 148 156 144 c 0
 156 84 146 32 102 -16 c 1
 86 -1 l 1
 92 28 94 69 94 109 c 0
 94 122 94 136 93 149 c 2
 75 578 l 2
EndSplineSet
Colour: ffda6b
EndChar

StartChar: _.alef.fina
Encoding: 65537 -1 1
GlifName: _.alef.fina
Width: 267
VWidth: 1304
GlyphClass: 2
Flags: HMW
LayerCount: 2
Fore
SplineSet
75 585 m 0
 75 597 78 610 83 621 c 1
 121 688 l 2
 131 706 147 701 147 687 c 2
 155 225 l 2
 155 182 165 140 193 120 c 0
 215 105 240 100 267 100 c 1
 267 -0 l 1
 143 0 96 88 91 200 c 2
 75 578 l 2
 75 580 75 583 75 585 c 0
EndSplineSet
Colour: ffda6b
EndChar

StartChar: _.beh.isol
Encoding: 65540 -1 4
GlifName: _.beh.isol
Width: 850
VWidth: 1304
GlyphClass: 2
UnlinkRmOvrlpSave: 1
Flags: HMW
LayerCount: 2
Fore
SplineSet
75 167 m 0
 75 205 84 250 104 303 c 1
 135 288 l 1
 126 261 121 236 121 215 c 0
 121 114 220 75 369 75 c 0
 497 75 630 109 721 149 c 1
 715 192 693 242 661 280 c 1
 707 379 l 1
 754 309 775 253 775 197 c 0
 775 152 762 112 746 74 c 1
 667 25 499 -25 350 -25 c 0
 349 -25 347 -25 346 -25 c 0
 201 -25 75 24 75 167 c 0
EndSplineSet
Colour: ffda6b
EndChar

StartChar: _.beh.fina
Encoding: 65541 -1 5
GlifName: _.beh.fina
Width: 935
VWidth: 1304
GlyphClass: 2
UnlinkRmOvrlpSave: 1
Flags: HMW
LayerCount: 2
Fore
SplineSet
752 77 m 1
 669 27 505 -25 350 -25 c 0
 349 -25 347 -25 346 -25 c 0
 201 -25 75 24 75 167 c 0
 75 205 84 250 104 303 c 1
 135 288 l 1
 126 261 121 236 121 215 c 0
 121 114 220 75 369 75 c 0
 500 75 637 111 727 152 c 1
 725 167 724 185 724 204 c 0
 724 211 725 218 725 225 c 1
 763 261 l 2
 770 267 775 265 775 256 c 0
 775 139 825 100 935 100 c 1
 935 -0 l 1
 844 0 784 24 752 77 c 1
EndSplineSet
Colour: ffda6b
EndChar

StartChar: _.beh.medi
Encoding: 65542 -1 6
GlifName: _.beh.medi
Width: 376
VWidth: 1304
GlyphClass: 2
UnlinkRmOvrlpSave: 1
Flags: HMW
LayerCount: 2
Fore
SplineSet
-50 50 m 0
 -50 76 -26 100 -1 100 c 2
 35 100 l 2
 85 100 134 109 170 139 c 1
 166 158 165 178 165 202 c 0
 165 209 165 217 165 225 c 1
 204 261 l 2
 211 267 216 265 216 256 c 0
 216 139 266 100 376 100 c 1
 376 -0 l 1
 292 0 234 20 200 66 c 1
 167 19 110 0 35 -0 c 2
 -1 -0 l 2
 -26 0 -50 24 -50 50 c 0
EndSplineSet
Colour: ffda6b
EndChar

StartChar: _.beh.init
Encoding: 65543 -1 7
GlifName: _.beh.init
Width: 311
VWidth: 1197
GlyphClass: 1
UnlinkRmOvrlpSave: 1
Flags: HMW
LayerCount: 2
Fore
SplineSet
-50 50 m 0
 -50 75 -27 100 -2 100 c 2
 35 100 l 2
 90 100 144 111 181 149 c 1
 172 185 154 232 121 271 c 1
 168 369 l 1
 217 308 236 244 236 187 c 0
 236 140 223 99 204 71 c 0
 172 21 114 0 35 -0 c 2
 -1 -0 l 1
 -26 1 -50 24 -50 50 c 0
EndSplineSet
Colour: ffda6b
EndChar

StartChar: _.heh.isol
Encoding: 65544 -1 8
GlifName: _.heh.isol
Width: 719
VWidth: 1304
GlyphClass: 1
UnlinkRmOvrlpSave: 1
Flags: HMW
LayerCount: 2
Fore
SplineSet
75 239 m 1
 135 362 188 400 244 400 c 0
 336 400 433 294 570 294 c 0
 577 294 584 294 592 295 c 2
 643 300 l 1
 593 194 l 1
 334 194 145 19 145 -119 c 0
 145 -207 223 -280 410 -280 c 0
 411 -280 411 -280 412 -280 c 0
 474 -280 549 -272 636 -251 c 1
 644 -278 l 1
 564 -346 464 -380 373 -381 c 0
 178 -381 81 -259 81 -119 c 0
 81 18 175 173 363 248 c 1
 318 272 273 294 228 294 c 0
 187 294 146 276 106 224 c 1
 75 239 l 1
EndSplineSet
Colour: ffda6b
EndChar

StartChar: _.heh.fina
Encoding: 65545 -1 9
GlifName: _.heh.fina
Width: 694
VWidth: 1304
GlyphClass: 1
UnlinkRmOvrlpSave: 1
Flags: HMW
LayerCount: 2
Fore
SplineSet
645 -0 m 2
 494 0 455 72 446 175 c 1
 266 125 145 -9 145 -119 c 0
 145 -207 223 -280 410 -280 c 0
 411 -280 411 -280 412 -280 c 0
 474 -280 549 -272 636 -251 c 1
 644 -278 l 1
 564 -346 464 -380 373 -381 c 0
 178 -381 81 -259 81 -119 c 0
 81 18 175 173 363 248 c 1
 318 272 273 294 228 294 c 0
 187 294 146 276 106 224 c 1
 75 239 l 1
 135 362 188 400 244 400 c 0
 336 400 433 294 570 294 c 0
 577 294 584 294 592 295 c 2
 643 300 l 1
 593 194 l 1
 560 194 527 192 495 186 c 1
 499 175 504 164 510 154 c 0
 542 106 596 100 645 100 c 2
 694 100 l 1
 694 -0 l 1
 645 -0 l 2
EndSplineSet
Colour: ffda6b
EndChar

StartChar: _.heh.medi
Encoding: 65546 -1 10
GlifName: _.heh.medi
Width: 700
VWidth: 1304
GlyphClass: 1
UnlinkRmOvrlpSave: 1
Flags: HMW
LayerCount: 2
Fore
SplineSet
650 -0 m 2
 501 0 461 71 451 170 c 1
 361 113 360 0 129 -0 c 2
 0 -0 l 2
 -25 0 -50 24 -50 50 c 0
 -50 76 -26 100 -1 100 c 2
 129 100 l 2
 299 100 337 168 401 225 c 1
 340 256 278 297 217 297 c 0
 176 297 135 278 94 226 c 1
 63 242 l 1
 122 364 177 403 232 403 c 0
 324 403 420 298 557 298 c 0
 564 298 571 298 578 299 c 2
 590 299 l 1
 631 302 l 1
 583 203 l 1
 572 203 l 1
 532 194 l 2
 521 192 512 192 502 192 c 1
 506 178 509 165 516 154 c 0
 547 106 601 100 650 100 c 2
 700 100 l 1
 700 -0 l 1
 650 -0 l 2
EndSplineSet
Colour: ffda6b
EndChar

StartChar: _.heh.init
Encoding: 65547 -1 11
GlifName: _.heh.init
Width: 706
VWidth: 1304
GlyphClass: 1
UnlinkRmOvrlpSave: 1
Flags: HMW
LayerCount: 2
Fore
SplineSet
-50 50 m 0
 -50 76 -26 100 -1 100 c 2
 129 100 l 2
 299 100 337 168 401 225 c 1
 340 256 278 297 217 297 c 0
 176 297 135 278 94 226 c 1
 63 242 l 1
 122 364 177 403 232 403 c 0
 324 403 420 298 557 298 c 0
 564 298 571 298 578 299 c 2
 590 299 l 1
 631 302 l 1
 583 203 l 1
 572 203 l 1
 532 194 l 2
 521 192 512 192 502 192 c 0
 357 150 396 0 129 -0 c 2
 0 -0 l 2
 -25 0 -50 24 -50 50 c 0
EndSplineSet
Colour: ffda6b
EndChar

StartChar: _.sin.isol
Encoding: 65548 -1 12
GlifName: _.sin.isol
Width: 1143
VWidth: 1304
GlyphClass: 1
UnlinkRmOvrlpSave: 1
Flags: HMW
LayerCount: 2
Fore
SplineSet
694 -0 m 0
 665 0 627 11 606 27 c 1
 607 12 607 -2 607 -14 c 0
 606 -197 447 -299 303 -299 c 0
 184 -299 75 -229 75 -78 c 0
 75 -26 88 35 118 107 c 1
 147 92 l 1
 132 45 126 4 126 -30 c 0
 126 -153 210 -199 304 -199 c 0
 422 -199 555 -128 563 -46 c 1
 553 3 529 79 482 152 c 1
 530 251 l 1
 540 236 548 221 555 204 c 0
 567 183 581 162 598 145 c 1
 598 146 l 1
 626 116 664 100 701 100 c 0
 741 100 778 120 797 165 c 2
 817 210 l 2
 820 216 823 219 828 219 c 0
 842 219 861 195 861 188 c 1
 836 125 l 1
 870 109 912 99 949 99 c 0
 967 99 984 102 998 107 c 1
 998 110 998 113 998 117 c 0
 998 148 988 190 958 248 c 1
 1022 336 l 1
 1054 263 1068 212 1068 170 c 0
 1068 120 1044 69 1021 44 c 1
 1021 39 l 1
 1017 39 l 1
 992 11 962 1 931 1 c 0
 881 1 831 28 800 54 c 1
 777 26 745 4 707 -0 c 1
 700 -0 l 2
 698 0 696 0 694 -0 c 0
EndSplineSet
Colour: ffda6b
EndChar

StartChar: _.sin.fina
Encoding: 65549 -1 13
GlifName: _.sin.fina
Width: 1197
VWidth: 1304
GlyphClass: 1
UnlinkRmOvrlpSave: 1
Flags: HMW
LayerCount: 2
Fore
SplineSet
663 -0 m 0
 635 0 601 10 579 24 c 1
 579 8 l 2
 579 -2 577 -28 576 -37 c 0
 560 -185 412 -276 282 -276 c 0
 171 -275 75 -215 75 -81 c 0
 75 -28 91 38 126 116 c 1
 156 100 l 1
 138 49 130 6 130 -29 c 0
 130 -135 203 -175 285 -175 c 0
 286 -175 287 -175 288 -175 c 0
 394 -175 516 -109 527 -43 c 1
 520 21 480 104 452 152 c 1
 500 251 l 1
 519 212 536 175 566 145 c 1
 566 146 l 1
 594 116 633 100 670 100 c 0
 710 100 747 120 766 165 c 2
 785 210 l 2
 788 216 792 219 797 219 c 0
 811 219 830 195 830 188 c 1
 809 134 l 1
 830 110 860 100 891 100 c 0
 926 100 963 113 992 134 c 1
 987 154 986 177 986 202 c 0
 986 209 986 217 986 225 c 1
 1024 261 l 2
 1031 267 1036 265 1036 256 c 0
 1036 139 1087 100 1197 100 c 1
 1197 -0 l 1
 1117 0 1059 18 1025 60 c 1
 995 20 944 -1 894 -1 c 0
 846 -1 799 17 769 55 c 1
 746 25 715 4 676 -0 c 1
 668 -0 l 2
 666 0 665 0 663 -0 c 0
EndSplineSet
Colour: ffda6b
EndChar

StartChar: _.sin.medi
Encoding: 65550 -1 14
GlifName: _.sin.medi
Width: 814
VWidth: 1304
GlyphClass: 1
UnlinkRmOvrlpSave: 1
Flags: HMW
LayerCount: 2
Fore
SplineSet
283 -0 m 0
 236 0 191 18 159 60 c 1
 125 14 79 0 -1 -0 c 0
 -26 0 -50 24 -50 50 c 0
 -49 76 -26 100 0 100 c 0
 81 100 132 114 170 199 c 2
 191 245 l 2
 196 257 201 258 218 247 c 0
 236 233 236 229 234 223 c 2
 198 133 l 1
 224 112 256 100 287 100 c 0
 327 100 364 120 383 165 c 2
 403 210 l 2
 406 216 409 219 414 219 c 0
 428 219 447 195 447 188 c 1
 426 134 l 1
 447 110 477 100 508 100 c 0
 543 100 581 113 610 134 c 1
 605 154 603 177 603 202 c 0
 603 209 604 217 604 225 c 1
 642 261 l 2
 649 267 654 265 654 256 c 0
 654 139 704 100 814 100 c 1
 814 -0 l 1
 734 0 677 18 643 60 c 1
 613 20 562 -1 512 -1 c 0
 464 -1 417 17 387 55 c 1
 362 24 327 0 283 -0 c 0
EndSplineSet
Colour: ffda6b
EndChar

StartChar: _.sin.init
Encoding: 65551 -1 15
GlifName: _.sin.init
Width: 729
VWidth: 1304
GlyphClass: 1
UnlinkRmOvrlpSave: 1
Flags: HMW
LayerCount: 2
Fore
SplineSet
283 -0 m 0
 236 0 191 18 159 60 c 1
 125 14 79 0 -1 -0 c 0
 -26 0 -50 24 -50 50 c 0
 -49 76 -26 100 0 100 c 0
 81 100 132 114 170 199 c 2
 191 245 l 2
 196 257 201 258 218 247 c 0
 236 233 236 229 234 223 c 2
 198 133 l 1
 224 112 256 100 287 100 c 0
 327 100 364 120 383 165 c 2
 403 210 l 2
 406 216 409 219 414 219 c 0
 428 219 447 195 447 188 c 1
 423 125 l 1
 457 109 499 99 536 99 c 0
 554 99 570 102 584 107 c 1
 584 110 584 113 584 117 c 0
 584 148 575 190 545 248 c 1
 609 336 l 1
 641 263 654 212 654 170 c 0
 654 120 630 69 607 44 c 1
 607 39 l 1
 604 39 l 1
 579 11 548 1 517 1 c 0
 467 1 417 28 386 54 c 1
 361 23 327 0 283 -0 c 0
EndSplineSet
Colour: ffda6b
EndChar

StartChar: _.sad.isol
Encoding: 65552 -1 16
GlifName: _.sad.isol
Width: 1148
VWidth: 1304
GlyphClass: 1
UnlinkRmOvrlpSave: 1
Flags: HMW
LayerCount: 2
Fore
SplineSet
905 375 m 0
 994 375 1072 275 1073 196 c 0
 1073 164 1069 120 1046 95 c 0
 979 23 855 -15 739 -15 c 0
 681 -15 625 -2 578 29 c 1
 579 22 579 14 579 8 c 0
 579 -2 577 -28 577 -37 c 0
 561 -185 412 -276 282 -276 c 0
 171 -275 75 -215 75 -81 c 0
 75 -28 90 38 126 116 c 1
 157 100 l 1
 139 49 130 6 130 -29 c 0
 130 -135 203 -175 286 -175 c 0
 287 -175 288 -175 289 -175 c 0
 395 -175 516 -109 526 -43 c 1
 520 21 480 104 452 152 c 1
 500 251 l 1
 511 229 524 204 536 178 c 0
 551 151 572 131 598 116 c 1
 684 210 787 375 905 375 c 0
631 100 m 1
 663 89 700 83 737 83 c 0
 838 83 945 114 1017 155 c 1
 999 210 942 274 887 274 c 0
 886 274 885 274 884 274 c 0
 796 274 688 161 631 100 c 1
EndSplineSet
Colour: ffda6b
EndChar

StartChar: _.sad.fina
Encoding: 65553 -1 17
GlifName: _.sad.fina
Width: 1187
VWidth: 1304
GlyphClass: 1
UnlinkRmOvrlpSave: 1
Flags: HMW
LayerCount: 2
Fore
SplineSet
906 375 m 0
 995 375 1072 275 1073 196 c 0
 1073 176 1072 150 1065 129 c 1
 1101 106 1146 100 1187 100 c 1
 1187 -0 l 1
 1111 0 1052 21 1019 70 c 1
 950 16 845 -15 747 -15 c 0
 744 -15 743 -15 740 -15 c 0
 681 -15 625 -2 579 29 c 1
 579 8 l 2
 579 -2 577 -28 576 -37 c 0
 560 -185 412 -276 282 -276 c 0
 171 -275 75 -215 75 -81 c 0
 75 -28 91 38 126 116 c 1
 156 100 l 1
 138 49 130 6 130 -29 c 0
 130 -135 203 -175 285 -175 c 0
 286 -175 287 -175 288 -175 c 0
 394 -175 516 -109 527 -43 c 1
 520 21 480 104 452 152 c 1
 500 251 l 1
 510 233 520 211 531 189 c 0
 547 156 570 133 598 116 c 1
 684 210 788 375 906 375 c 0
631 100 m 1
 663 89 700 83 737 83 c 0
 838 83 946 114 1018 155 c 1
 1000 210 943 274 888 274 c 0
 887 274 886 274 885 274 c 0
 797 274 688 161 631 100 c 1
EndSplineSet
Colour: ffda6b
EndChar

StartChar: _.sad.medi
Encoding: 65554 -1 18
GlifName: _.sad.medi
Width: 839
VWidth: 1304
GlyphClass: 1
UnlinkRmOvrlpSave: 1
Flags: HMW
LayerCount: 2
Fore
SplineSet
558 375 m 0
 647 375 725 276 726 196 c 0
 726 174 723 150 717 129 c 1
 751 107 797 100 839 100 c 1
 839 -0 l 1
 761 0 704 21 671 70 c 1
 601 17 497 -15 399 -15 c 0
 397 -15 395 -15 393 -15 c 0
 316 -15 243 8 199 63 c 1
 165 19 109 0 35 -0 c 2
 -1 -0 l 2
 -26 0 -50 23 -50 48 c 0
 -50 75 -27 100 -1 100 c 2
 35 100 l 2
 82 100 129 108 163 133 c 1
 157 153 155 174 155 199 c 0
 155 207 155 216 156 225 c 1
 186 251 l 2
 190 255 206 268 206 250 c 2
 206 241 l 1
 207 186 225 148 255 122 c 1
 341 217 443 375 558 375 c 0
286 103 m 1
 315 89 352 83 391 83 c 0
 491 83 599 114 670 155 c 1
 652 210 595 274 540 274 c 0
 539 274 538 274 537 274 c 0
 450 274 344 164 286 103 c 1
EndSplineSet
Colour: ffda6b
EndChar

StartChar: _.sad.init
Encoding: 65555 -1 19
GlifName: _.sad.init
Width: 801
VWidth: 1304
GlyphClass: 1
UnlinkRmOvrlpSave: 1
Flags: HMW
LayerCount: 2
Fore
SplineSet
558 375 m 0
 647 375 725 276 726 196 c 0
 726 164 721 121 699 95 c 0
 630 25 509 -15 393 -15 c 0
 316 -15 243 8 199 63 c 1
 165 19 109 0 35 -0 c 2
 -1 -0 l 2
 -26 0 -50 23 -50 48 c 0
 -50 75 -27 100 -1 100 c 2
 35 100 l 2
 82 100 129 108 163 133 c 1
 157 153 155 174 155 199 c 0
 155 207 155 216 156 225 c 1
 186 251 l 2
 190 255 206 268 206 250 c 2
 206 241 l 1
 207 186 225 148 255 122 c 1
 341 217 443 375 558 375 c 0
286 103 m 1
 315 89 352 83 391 83 c 0
 491 83 599 114 670 155 c 1
 652 210 595 274 540 274 c 0
 539 274 538 274 537 274 c 0
 450 274 344 164 286 103 c 1
EndSplineSet
Colour: ffda6b
EndChar

StartChar: _.ta.isol
Encoding: 65556 -1 20
GlifName: _.ta.isol
Width: 775
VWidth: 1304
GlyphClass: 1
UnlinkRmOvrlpSave: 1
Flags: HMW
LayerCount: 2
Fore
SplineSet
532 375 m 0
 621 375 699 276 700 196 c 1
 700 194 l 2
 700 161 694 120 673 95 c 0
 602 23 480 -15 360 -15 c 0
 121 -15 75 56 75 110 c 0
 75 130 83 169 98 169 c 0
 106 169 114 156 119 151 c 0
 140 129 170 113 206 103 c 1
 234 117 265 162 265 198 c 1
 247 578 l 2
 247 592 248 607 255 621 c 2
 292 688 l 2
 303 706 319 701 319 687 c 2
 319 229 l 1
 383 304 455 375 532 375 c 0
251 92 m 1
 287 86 324 83 357 83 c 0
 462 83 570 113 644 155 c 1
 626 210 569 274 514 274 c 0
 513 274 512 274 511 274 c 0
 419 274 306 149 251 92 c 1
EndSplineSet
Colour: ffda6b
EndChar

StartChar: _.ta.fina
Encoding: 65557 -1 21
GlifName: _.ta.fina
Width: 813
VWidth: 1304
GlyphClass: 1
UnlinkRmOvrlpSave: 1
Flags: HMW
LayerCount: 2
Fore
SplineSet
532 375 m 0
 621 375 699 276 700 196 c 0
 700 176 698 150 691 129 c 1
 727 106 772 100 813 100 c 1
 813 -0 l 1
 737 0 679 21 646 70 c 1
 577 16 472 -15 374 -15 c 0
 369 -15 364 -15 360 -15 c 0
 121 -15 75 56 75 110 c 0
 75 130 83 169 98 169 c 0
 106 169 114 156 119 151 c 0
 140 129 170 113 206 103 c 1
 234 117 265 162 265 198 c 1
 247 578 l 2
 247 592 248 607 255 621 c 2
 292 688 l 2
 303 706 319 701 319 687 c 2
 319 229 l 1
 383 304 455 375 532 375 c 0
251 92 m 1
 287 86 324 83 357 83 c 0
 462 83 570 113 644 155 c 1
 626 210 569 274 514 274 c 0
 513 274 512 274 511 274 c 0
 419 274 306 149 251 92 c 1
EndSplineSet
Colour: ffda6b
EndChar

StartChar: _.ta.medi
Encoding: 65558 -1 22
GlifName: _.ta.medi
Width: 685
VWidth: 1304
GlyphClass: 1
UnlinkRmOvrlpSave: 1
Flags: HMW
LayerCount: 2
Fore
SplineSet
404 375 m 0
 493 375 571 276 572 196 c 0
 572 174 569 150 563 129 c 1
 597 107 643 100 685 100 c 1
 685 -0 l 1
 607 0 549 21 516 70 c 1
 447 20 343 0 245 -0 c 2
 0 -0 l 2
 -26 0 -50 24 -50 50 c 0
 -49 76 -26 100 0 100 c 2
 67 100 l 2
 84 100 102 123 112 135 c 0
 127 153 137 177 137 198 c 1
 119 578 l 2
 119 592 120 607 127 621 c 2
 164 688 l 2
 175 706 191 701 191 687 c 2
 191 229 l 1
 255 304 327 375 404 375 c 0
130 100 m 1
 247 100 l 2
 342 100 446 122 515 156 c 1
 497 211 440 274 386 274 c 0
 385 274 384 274 383 274 c 0
 295 274 187 160 130 100 c 1
EndSplineSet
Colour: ffda6b
EndChar

StartChar: _.ta.init
Encoding: 65559 -1 23
GlifName: _.ta.init
Width: 647
VWidth: 1304
GlyphClass: 1
UnlinkRmOvrlpSave: 1
Flags: HMW
LayerCount: 2
Fore
SplineSet
404 375 m 0
 493 375 571 276 572 196 c 0
 572 164 567 121 545 95 c 0
 477 26 358 0 245 -0 c 2
 0 -0 l 2
 -26 0 -50 24 -50 50 c 0
 -49 76 -26 100 0 100 c 2
 67 100 l 2
 84 100 102 123 112 135 c 0
 127 153 137 177 137 198 c 1
 119 578 l 2
 119 592 120 607 127 621 c 2
 164 688 l 2
 175 706 191 701 191 687 c 2
 191 229 l 1
 255 304 327 375 404 375 c 0
130 100 m 1
 247 100 l 2
 342 100 446 122 515 156 c 1
 497 211 440 274 386 274 c 0
 385 274 384 274 383 274 c 0
 295 274 187 160 130 100 c 1
EndSplineSet
Colour: ffda6b
EndChar

StartChar: _.ein.isol
Encoding: 65560 -1 24
GlifName: _.ein.isol
Width: 713
VWidth: 1304
GlyphClass: 1
UnlinkRmOvrlpSave: 1
Flags: HMW
LayerCount: 2
Fore
SplineSet
75 -139 m 0
 75 -19 147 114 290 196 c 1
 241 233 213 287 213 342 c 0
 213 392 243 449 278 476 c 0
 310 502 346 511 378 511 c 0
 444 509 499 461 525 415 c 1
 511 400 l 1
 477 413 433 423 388 423 c 0
 344 423 300 413 266 389 c 1
 275 315 333 251 374 231 c 1
 436 251 515 271 567 271 c 0
 572 271 578 271 583 271 c 1
 563 200 l 1
 487 184 442 160 382 135 c 0
 235 75 140 -41 140 -139 c 0
 140 -228 218 -301 407 -301 c 0
 469 -301 544 -292 631 -271 c 1
 638 -298 l 1
 558 -366 458 -400 367 -400 c 0
 172 -400 75 -279 75 -139 c 0
EndSplineSet
Colour: ffda6b
EndChar

StartChar: _.ein.fina
Encoding: 65561 -1 25
GlifName: _.ein.fina
Width: 660
VWidth: 1304
GlyphClass: 1
UnlinkRmOvrlpSave: 1
Flags: HMW
LayerCount: 2
Fore
SplineSet
518 323 m 0
 518 256 466 201 403 155 c 1
 451 123 508 99 582 99 c 0
 584 99 586 100 588 100 c 2
 660 100 l 1
 660 1 l 1
 593 1 l 2
 471 1 392 51 329 109 c 1
 212 46 140 -54 140 -139 c 0
 140 -227 218 -301 407 -301 c 0
 469 -301 544 -292 631 -271 c 1
 638 -298 l 1
 558 -366 458 -400 367 -400 c 0
 172 -400 75 -279 75 -139 c 0
 75 -28 137 96 261 178 c 1
 214 226 173 268 120 273 c 1
 132 363 l 1
 185 406 274 432 353 432 c 0
 442 432 518 400 518 323 c 0
216 311 m 1
 254 285 291 247 332 210 c 1
 400 242 453 276 455 290 c 0
 456 300 451 306 442 312 c 0
 417 328 386 335 351 335 c 0
 308 335 260 325 216 311 c 1
EndSplineSet
Colour: ffda6b
EndChar

StartChar: _.ein.medi
Encoding: 65562 -1 26
GlifName: _.ein.medi
Width: 484
VWidth: 1304
GlyphClass: 1
UnlinkRmOvrlpSave: 1
Flags: HMW
LayerCount: 2
Fore
SplineSet
432 275 m 0
 432 212 388 162 330 118 c 1
 366 107 411 100 466 100 c 2
 484 100 l 1
 484 -0 l 1
 458 -0 l 2
 361 0 295 28 245 64 c 1
 170 25 88 0 31 -0 c 2
 0 -0 l 2
 -25 0 -50 24 -50 50 c 0
 -49 75 -26 100 -1 100 c 2
 31 100 l 2
 70 100 121 114 170 132 c 1
 124 179 87 220 32 225 c 1
 46 316 l 1
 99 359 187 385 266 385 c 0
 355 385 432 353 432 275 c 0
127 263 m 1
 163 236 193 195 242 161 c 1
 311 193 367 229 369 244 c 0
 370 253 366 260 356 266 c 0
 331 282 299 287 265 287 c 0
 220 287 171 277 127 263 c 1
EndSplineSet
Colour: ffda6b
EndChar

StartChar: _.ein.init
Encoding: 65563 -1 27
GlifName: _.ein.init
Width: 535
VWidth: 1304
GlyphClass: 1
UnlinkRmOvrlpSave: 1
Flags: HMW
LayerCount: 2
Fore
SplineSet
90 222 m 0
 90 309 162 390 249 390 c 0
 320 390 375 342 401 294 c 1
 388 279 l 1
 354 293 308 303 263 303 c 0
 219 303 176 293 142 269 c 1
 151 200 202 142 241 117 c 1
 310 129 382 148 460 175 c 1
 435 100 l 1
 335 50 218 0 62 -0 c 2
 0 -0 l 1
 -25 1 -50 24 -50 50 c 0
 -49 75 -26 100 -1 100 c 2
 61 100 l 2
 86 100 111 101 137 103 c 1
 106 137 90 179 90 222 c 0
EndSplineSet
Colour: ffda6b
EndChar

StartChar: _.feh.isol
Encoding: 65564 -1 28
GlifName: _.feh.isol
Width: 850
VWidth: 1304
GlyphClass: 1
UnlinkRmOvrlpSave: 1
Flags: HMW
LayerCount: 2
Fore
SplineSet
75 167 m 0
 75 205 84 250 104 303 c 1
 135 288 l 1
 126 261 121 236 121 215 c 0
 121 114 220 75 369 75 c 0
 491 75 619 106 709 144 c 1
 709 150 709 156 709 163 c 0
 709 183 708 203 705 221 c 1
 677 198 638 187 602 187 c 0
 516 187 470 226 470 300 c 0
 470 302 470 304 470 306 c 0
 470 317 471 329 473 340 c 0
 488 420 542 514 610 514 c 0
 703 514 775 360 775 230 c 0
 775 172 753 72 712 55 c 0
 626 13 480 -25 350 -25 c 0
 349 -25 347 -25 346 -25 c 0
 201 -25 75 24 75 167 c 0
524 334 m 0
 524 305 559 288 605 288 c 0
 630 288 658 293 685 304 c 1
 663 367 626 409 590 409 c 0
 562 409 524 366 524 334 c 0
EndSplineSet
Colour: ffda6b
EndChar

StartChar: _.feh.fina
Encoding: 65565 -1 29
GlifName: _.feh.fina
Width: 925
VWidth: 1304
GlyphClass: 1
UnlinkRmOvrlpSave: 1
Flags: HMW
LayerCount: 2
Fore
SplineSet
847 274 m 0
 847 210 820 159 784 118 c 1
 817 107 855 100 901 100 c 2
 925 100 l 1
 925 -0 l 1
 901 -0 l 2
 812 0 745 18 696 48 c 1
 609 9 473 -25 350 -25 c 0
 349 -25 347 -25 346 -25 c 0
 201 -25 75 24 75 167 c 0
 75 205 84 250 104 303 c 1
 135 288 l 1
 126 261 121 236 121 215 c 0
 121 114 220 75 369 75 c 0
 458 75 548 91 626 114 c 1
 599 153 588 197 588 238 c 0
 588 341 675 439 739 439 c 0
 792 439 847 351 847 274 c 0
633 250 m 0
 633 237 656 196 705 159 c 1
 758 195 795 234 796 246 c 0
 796 275 754 340 727 340 c 0
 726 340 726 340 725 340 c 0
 686 334 633 273 633 250 c 0
EndSplineSet
Colour: ffda6b
EndChar

StartChar: _.feh.medi
Encoding: 65566 -1 30
GlifName: _.feh.medi
Width: 424
VWidth: 1304
GlyphClass: 1
UnlinkRmOvrlpSave: 1
Flags: HMW
LayerCount: 2
Fore
SplineSet
346 274 m 0
 346 211 318 159 282 118 c 1
 315 107 353 100 399 100 c 2
 424 100 l 1
 424 -0 l 1
 399 -0 l 2
 310 0 244 18 196 48 c 1
 142 16 87 0 49 -0 c 2
 -1 -0 l 1
 -25 1 -50 24 -50 49 c 0
 -50 76 -28 100 -1 100 c 2
 31 100 l 2
 62 100 92 107 122 118 c 1
 97 154 86 194 86 233 c 0
 86 339 172 439 238 439 c 0
 290 439 346 351 346 274 c 0
131 251 m 0
 131 239 154 197 204 159 c 1
 257 195 294 234 295 246 c 0
 295 275 253 340 226 340 c 0
 225 340 224 340 223 340 c 0
 185 334 132 273 131 251 c 0
EndSplineSet
Colour: ffda6b
EndChar

StartChar: _.feh.init
Encoding: 65567 -1 31
GlifName: _.feh.init
Width: 450
VWidth: 1304
GlyphClass: 1
UnlinkRmOvrlpSave: 1
Flags: HMW
LayerCount: 2
Fore
SplineSet
-50 49 m 0
 -50 76 -27 100 -1 100 c 2
 79 100 l 2
 171 100 251 127 310 168 c 1
 310 185 308 204 306 221 c 1
 278 198 238 187 202 187 c 0
 116 187 71 226 71 300 c 0
 71 302 71 304 71 306 c 0
 71 317 72 329 74 340 c 0
 89 420 143 514 211 514 c 0
 302 514 375 362 375 233 c 0
 375 230 375 228 375 225 c 0
 375 74 227 0 79 -0 c 2
 -1 -0 l 2
 -25 0 -50 24 -50 49 c 0
125 334 m 0
 125 305 160 288 206 288 c 0
 231 288 259 293 286 304 c 1
 264 367 227 409 191 409 c 0
 163 409 125 366 125 334 c 0
EndSplineSet
Colour: ffda6b
EndChar

StartChar: _.qaf.isol
Encoding: 65568 -1 32
GlifName: _.qaf.isol
Width: 682
VWidth: 1304
GlyphClass: 1
UnlinkRmOvrlpSave: 1
Flags: HMW
LayerCount: 2
Fore
SplineSet
443 327 m 0
 538 327 607 170 607 37 c 0
 607 -144 444 -249 298 -249 c 0
 181 -249 75 -181 75 -31 c 0
 75 21 88 84 118 157 c 1
 147 141 l 1
 131 92 124 51 124 16 c 0
 124 -104 207 -148 301 -148 c 0
 396 -148 502 -102 544 -43 c 1
 543 -26 541 -9 541 -3 c 0
 540 9 540 22 538 34 c 1
 510 11 470 0 434 -0 c 0
 348 0 302 39 302 113 c 0
 302 115 302 117 302 119 c 0
 302 130 304 141 306 152 c 0
 321 232 375 327 443 327 c 0
356 147 m 0
 356 118 392 101 438 101 c 0
 463 101 491 106 518 117 c 1
 496 180 459 221 423 221 c 0
 395 221 356 179 356 147 c 0
EndSplineSet
Colour: ffda6b
EndChar

StartChar: _.qaf.fina
Encoding: 65569 -1 33
GlifName: _.qaf.fina
Width: 681
VWidth: 1304
GlyphClass: 1
UnlinkRmOvrlpSave: 1
Flags: HMW
LayerCount: 2
Fore
SplineSet
75 -31 m 0
 75 21 87 84 117 157 c 1
 147 141 l 1
 131 92 124 51 124 16 c 0
 124 -104 206 -148 300 -148 c 0
 395 -148 501 -102 543 -43 c 1
 542 -28 541 -15 541 -0 c 1
 434 -0 l 2
 348 0 302 39 302 113 c 0
 302 115 302 117 302 119 c 0
 302 130 304 141 306 152 c 0
 321 232 374 327 442 327 c 0
 521 327 585 214 602 100 c 1
 681 100 l 1
 681 -0 l 1
 605 -0 l 1
 585 -158 433 -249 298 -249 c 0
 181 -249 75 -182 75 -31 c 0
356 147 m 0
 356 118 390 101 436 101 c 2
 524 101 l 1
 502 172 462 221 423 221 c 0
 395 221 356 179 356 147 c 0
EndSplineSet
Colour: ffda6b
EndChar

StartChar: _.kaf.isol.fa
Encoding: 65570 -1 34
GlifName: _.kaf.isol.fa
Width: 1000
VWidth: 1304
GlyphClass: 1
UnlinkRmOvrlpSave: 1
Flags: HMW
LayerCount: 2
Fore
SplineSet
75 167 m 0
 75 205 84 250 104 303 c 1
 135 288 l 1
 126 261 121 236 121 215 c 0
 121 114 220 75 369 75 c 0
 499 75 633 110 723 150 c 1
 682 269 540 372 476 425 c 0
 464 435 459 449 459 465 c 0
 459 515 507 582 536 596 c 1
 925 718 l 1
 893 614 l 1
 538 503 l 1
 607 445 777 307 777 182 c 0
 777 171 776 161 773 150 c 1
 771 124 760 85 746 74 c 0
 667 25 499 -25 350 -25 c 0
 349 -25 347 -25 346 -25 c 0
 201 -25 75 24 75 167 c 0
EndSplineSet
Colour: ffda6b
EndChar

StartChar: _.kaf.isol.ar
Encoding: 65571 -1 35
GlifName: _.kaf.isol.ar
Width: 849
VWidth: 1304
GlyphClass: 1
UnlinkRmOvrlpSave: 1
Flags: HMW
LayerCount: 2
Fore
SplineSet
369 75 m 0
 494 75 624 107 714 146 c 1
 683 575 l 1
 683 606 714 661 742 700 c 1
 754 690 l 1
 774 152 l 1
 772 125 760 85 746 74 c 0
 667 25 499 -25 350 -25 c 0
 349 -25 347 -25 346 -25 c 0
 201 -25 75 24 75 167 c 0
 75 205 84 250 104 303 c 1
 135 288 l 1
 126 261 121 236 121 215 c 0
 121 114 220 75 369 75 c 0
EndSplineSet
Colour: ffda6b
EndChar

StartChar: _.kaf.fina.fa
Encoding: 65572 -1 36
GlifName: _.kaf.fina.fa
Width: 976
VWidth: 1304
GlyphClass: 1
UnlinkRmOvrlpSave: 1
Flags: HMW
LayerCount: 2
Fore
SplineSet
75 167 m 0
 75 205 84 250 104 303 c 1
 135 288 l 1
 126 261 121 236 121 215 c 0
 121 114 220 75 369 75 c 0
 499 75 633 110 723 150 c 1
 682 269 540 372 476 425 c 0
 464 435 459 449 459 465 c 0
 459 515 507 582 536 596 c 1
 925 718 l 1
 893 614 l 1
 538 503 l 1
 574 474 639 420 689 362 c 0
 802 233 885 100 976 100 c 1
 976 -0 l 1
 892 0 831 58 769 129 c 1
 764 106 756 83 746 74 c 0
 667 25 499 -25 350 -25 c 0
 349 -25 347 -25 346 -25 c 0
 201 -25 75 24 75 167 c 0
EndSplineSet
Colour: ffda6b
EndChar

StartChar: _.kaf.fina.ar
Encoding: 65573 -1 37
GlifName: _.kaf.fina.ar
Width: 901
VWidth: 1304
GlyphClass: 1
UnlinkRmOvrlpSave: 1
Flags: HMW
LayerCount: 2
Fore
SplineSet
369 75 m 0
 494 75 624 107 714 146 c 1
 684 575 l 1
 684 606 715 661 743 700 c 1
 755 690 l 1
 775 152 l 1
 803 106 853 100 901 100 c 1
 901 -0 l 1
 816 0 763 27 737 69 c 1
 655 21 494 -25 350 -25 c 0
 349 -25 347 -25 346 -25 c 0
 201 -25 75 24 75 167 c 0
 75 205 84 250 104 303 c 1
 135 288 l 1
 126 261 121 236 121 215 c 0
 121 114 220 75 369 75 c 0
EndSplineSet
Colour: ffda6b
EndChar

StartChar: _.kaf.medi
Encoding: 65574 -1 38
GlifName: _.kaf.medi
Width: 518
VWidth: 1304
GlyphClass: 1
UnlinkRmOvrlpSave: 1
Flags: HMW
LayerCount: 2
Fore
SplineSet
308 132 m 1
 280 34 192 0 68 -0 c 2
 0 -0 l 2
 -26 0 -50 24 -50 50 c 0
 -50 76 -26 100 0 100 c 2
 69 100 l 2
 163 100 218 117 265 151 c 1
 224 270 82 372 18 425 c 0
 6 435 0 449 0 465 c 0
 0 515 49 582 78 596 c 1
 467 718 l 1
 435 614 l 1
 79 503 l 1
 115 474 181 420 231 362 c 0
 344 233 427 100 518 100 c 1
 518 -0 l 1
 434 0 370 59 308 132 c 1
EndSplineSet
Colour: ffda6b
EndChar

StartChar: _.kaf.init
Encoding: 65575 -1 39
GlifName: _.kaf.init
Width: 542
VWidth: 1304
GlyphClass: 1
UnlinkRmOvrlpSave: 1
Flags: HMW
LayerCount: 2
Fore
SplineSet
312 143 m 1
 291 37 194 0 68 -0 c 2
 0 -0 l 2
 -26 0 -50 24 -50 50 c 0
 -50 76 -26 100 0 100 c 2
 69 100 l 2
 163 100 218 117 265 151 c 1
 224 270 82 372 18 425 c 0
 6 435 0 449 0 465 c 0
 0 515 49 582 78 596 c 1
 467 718 l 1
 435 614 l 1
 79 503 l 1
 148 446 318 307 318 183 c 0
 318 170 316 157 312 145 c 1
 312 143 l 1
EndSplineSet
Colour: ffda6b
EndChar

StartChar: _.kaf_hamze.isol.ar
Encoding: 65576 -1 40
GlifName: _.kaf_hamze.isol.ar
Width: 372
VWidth: 1304
GlyphClass: 1
UnlinkRmOvrlpSave: 1
Flags: HMW
LayerCount: 2
Fore
SplineSet
75 22 m 1
 80 36 l 1
 83 36 86 35 89 35 c 0
 164 35 256 49 256 87 c 0
 256 98 231 101 202 101 c 0
 178 101 152 100 135 100 c 1
 135 103 135 105 135 108 c 0
 135 171 173 274 268 274 c 1
 256 223 l 1
 220 223 177 188 172 150 c 1
 184 150 198 151 212 151 c 0
 253 151 297 144 297 98 c 0
 297 37 220 -1 149 -1 c 0
 117 -1 96 10 75 22 c 1
EndSplineSet
Colour: ffda6b
EndChar

StartChar: _.ghaf.isol
Encoding: 65577 -1 41
GlifName: _.ghaf.isol
Width: 1000
VWidth: 0
GlyphClass: 1
UnlinkRmOvrlpSave: 1
Flags: HMW
LayerCount: 2
Fore
SplineSet
75 167 m 0
 75 205 84 250 104 303 c 1
 135 288 l 1
 126 261 121 236 121 215 c 0
 121 114 220 75 369 75 c 0
 499 75 633 110 723 150 c 1
 682 269 540 372 476 425 c 0
 464 435 459 449 459 465 c 0
 459 515 507 582 536 596 c 1
 925 718 l 1
 893 614 l 1
 538 503 l 1
 607 445 777 307 777 182 c 0
 777 171 776 161 773 150 c 1
 771 124 760 85 746 74 c 0
 667 25 499 -25 350 -25 c 0
 349 -25 347 -25 346 -25 c 0
 201 -25 75 24 75 167 c 0
544 651 m 1
 562 705 l 1
 877 800 l 1
 860 748 l 1
 544 651 l 1
EndSplineSet
Colour: ffda6b
EndChar

StartChar: _.ghaf.fina
Encoding: 65578 -1 42
GlifName: _.ghaf.fina
Width: 976
VWidth: 0
GlyphClass: 1
Flags: HMW
LayerCount: 2
Fore
SplineSet
75 167 m 0
 75 205 84 250 104 303 c 1
 135 288 l 1
 126 261 121 236 121 215 c 0
 121 114 220 75 369 75 c 0
 499 75 633 110 723 150 c 1
 682 269 540 372 476 425 c 0
 464 435 459 449 459 465 c 0
 459 515 507 582 536 596 c 1
 925 718 l 1
 893 614 l 1
 538 503 l 1
 574 474 639 420 689 362 c 0
 802 233 885 100 976 100 c 1
 976 -0 l 1
 892 0 831 58 769 129 c 1
 764 106 756 83 746 74 c 0
 667 25 499 -25 350 -25 c 0
 349 -25 347 -25 346 -25 c 0
 201 -25 75 24 75 167 c 0
544 651 m 1
 562 705 l 1
 877 800 l 1
 860 748 l 1
 544 651 l 1
EndSplineSet
Colour: ffda6b
EndChar

StartChar: _.lam.isol
Encoding: 65580 -1 44
GlifName: _.lam.isol
Width: 654
VWidth: 1304
GlyphClass: 1
UnlinkRmOvrlpSave: 1
Flags: HMW
LayerCount: 2
Fore
SplineSet
75 -81 m 0
 75 -28 90 38 126 116 c 1
 157 100 l 1
 139 49 130 6 130 -29 c 0
 130 -135 203 -175 286 -175 c 0
 287 -175 288 -175 289 -175 c 0
 395 -175 516 -109 526 -43 c 1
 497 578 l 2
 497 592 498 607 505 621 c 2
 542 688 l 2
 552 706 568 701 568 687 c 2
 579 8 l 2
 579 -2 576 -28 575 -37 c 0
 560 -185 412 -276 282 -276 c 0
 171 -275 75 -215 75 -81 c 0
EndSplineSet
Colour: ffda6b
EndChar

StartChar: _.lam.fina
Encoding: 65581 -1 45
GlifName: _.lam.fina
Width: 735
VWidth: 1304
GlyphClass: 1
UnlinkRmOvrlpSave: 1
Flags: HMW
LayerCount: 2
Fore
SplineSet
75 -81 m 0
 75 -28 90 38 126 116 c 1
 157 100 l 1
 139 49 130 6 130 -29 c 0
 130 -135 203 -175 286 -175 c 0
 287 -175 288 -175 289 -175 c 0
 395 -175 516 -109 526 -43 c 1
 497 578 l 2
 497 592 498 607 505 621 c 2
 542 688 l 2
 552 706 568 701 568 687 c 2
 575 234 l 1
 581 134 633 100 735 100 c 1
 735 -0 l 1
 665 0 614 14 578 45 c 1
 578 8 l 2
 578 -2 576 -28 575 -37 c 0
 560 -185 412 -276 282 -276 c 0
 171 -275 75 -215 75 -81 c 0
EndSplineSet
Colour: ffda6b
EndChar

StartChar: _.lam.medi
Encoding: 65582 -1 46
GlifName: _.lam.medi
Width: 376
VWidth: 1304
GlyphClass: 1
UnlinkRmOvrlpSave: 1
Flags: HMW
LayerCount: 2
Fore
SplineSet
-50 50 m 0
 -50 76 -26 100 -1 100 c 2
 35 100 l 2
 83 100 131 108 167 135 c 1
 148 578 l 2
 148 581 148 584 148 587 c 0
 148 598 150 610 156 621 c 2
 193 688 l 2
 204 706 220 701 220 687 c 2
 229 172 l 1
 250 119 298 100 376 100 c 1
 376 -0 l 1
 292 0 234 20 200 66 c 1
 167 19 110 0 35 -0 c 2
 -1 -0 l 2
 -26 0 -50 24 -50 50 c 0
EndSplineSet
Colour: ffda6b
EndChar

StartChar: _.lam.init
Encoding: 65583 -1 47
GlifName: _.lam.init
Width: 300
VWidth: 1304
GlyphClass: 1
UnlinkRmOvrlpSave: 1
Flags: HMW
LayerCount: 2
Fore
SplineSet
-50 49 m 0
 -50 76 -27 100 -1 100 c 2
 35 100 l 2
 63 100 91 104 117 111 c 0
 139 118 162 132 162 148 c 1
 131 578 l 2
 131 581 131 584 131 587 c 0
 131 598 132 609 138 620 c 2
 174 688 l 2
 184 706 200 702 200 688 c 2
 223 156 l 2
 224 146 225 138 225 130 c 0
 225 114 221 99 205 74 c 0
 173 22 114 0 35 -0 c 2
 -1 -0 l 2
 -25 0 -50 24 -50 49 c 0
EndSplineSet
Colour: ffda6b
EndChar

StartChar: _.mim.isol
Encoding: 65584 -1 48
GlifName: _.mim.isol
Width: 627
VWidth: 1304
GlyphClass: 1
UnlinkRmOvrlpSave: 1
Flags: HMW
LayerCount: 2
Fore
SplineSet
75 -11 m 0
 75 99 149 151 230 151 c 0
 241 151 253 150 264 148 c 1
 287 174 303 204 320 235 c 0
 341 273 376 316 426 316 c 0
 433 316 440 316 447 314 c 0
 499 303 552 197 552 119 c 0
 552 42 520 -26 450 -26 c 0
 430 -26 406 -21 380 -8 c 0
 352 4 323 16 298 31 c 0
 269 44 240 50 215 50 c 0
 186 50 161 43 139 31 c 1
 138 21 138 11 138 1 c 0
 138 -9 138 -17 139 -26 c 2
 158 -270 l 2
 158 -282 157 -298 150 -312 c 2
 113 -378 l 2
 103 -396 87 -390 87 -378 c 2
 76 -33 l 2
 75 -25 75 -18 75 -11 c 0
321 130 m 1
 352 105 433 70 471 70 c 0
 489 70 498 89 492 111 c 0
 476 167 439 217 402 217 c 0
 385 217 367 207 352 181 c 2
 321 130 l 1
EndSplineSet
Colour: ffda6b
EndChar

StartChar: _.mim.fina
Encoding: 65585 -1 49
GlifName: _.mim.fina
Width: 551
VWidth: 1304
GlyphClass: 1
UnlinkRmOvrlpSave: 1
Flags: HMW
LayerCount: 2
Fore
SplineSet
75 44 m 1
 76 56 80 67 84 77 c 1
 84 79 l 1
 105 139 172 168 327 241 c 0
 334 245 346 244 353 232 c 0
 389 161 454 100 551 100 c 1
 551 -0 l 1
 512 0 478 9 448 21 c 1
 407 -41 l 1
 376 -84 341 -102 308 -102 c 0
 238 -102 177 -22 177 68 c 0
 177 70 177 73 177 75 c 1
 163 66 148 58 136 49 c 1
 158 -280 l 2
 158 -282 158 -284 158 -286 c 0
 158 -297 155 -310 150 -321 c 1
 112 -388 l 2
 102 -406 86 -400 86 -388 c 2
 75 44 l 1
235 107 m 1
 234 49 287 -1 337 -1 c 0
 358 -1 379 8 394 29 c 1
 406 44 l 1
 356 80 327 127 320 150 c 1
 289 135 261 122 235 107 c 1
EndSplineSet
Colour: ffda6b
EndChar

StartChar: _.mim.medi
Encoding: 65586 -1 50
GlifName: _.mim.medi
Width: 556
VWidth: 1304
GlyphClass: 1
UnlinkRmOvrlpSave: 1
Flags: HMW
LayerCount: 2
Fore
SplineSet
-50 50 m 0
 -50 75 -26 100 -1 100 c 0
 91 104 119 128 162 208 c 2
 177 235 l 2
 198 273 233 316 283 316 c 0
 289 316 296 316 303 314 c 0
 336 307 371 259 392 205 c 1
 419 148 450 100 556 100 c 1
 556 -0 l 1
 483 0 435 23 401 54 c 1
 387 8 356 -26 307 -26 c 0
 287 -26 264 -21 237 -8 c 0
 200 7 160 24 130 45 c 1
 126 45 l 1
 99 18 60 4 0 -0 c 1
 -25 1 -50 24 -50 50 c 0
178 130 m 1
 209 105 290 70 328 70 c 0
 374 70 336 140 329 157 c 0
 310 191 284 217 258 217 c 0
 241 217 225 206 209 181 c 2
 178 130 l 1
EndSplineSet
Colour: ffda6b
EndChar

StartChar: _.mim.init
Encoding: 65587 -1 51
GlifName: _.mim.init
Width: 499
VWidth: 1304
GlyphClass: 1
UnlinkRmOvrlpSave: 1
Flags: HMW
LayerCount: 2
Fore
SplineSet
-50 50 m 0
 -50 75 -26 100 -1 100 c 0
 91 104 118 129 162 209 c 1
 191 264 l 2
 213 303 248 347 298 347 c 0
 304 347 311 347 318 345 c 0
 370 333 424 228 424 150 c 0
 424 72 392 4 322 4 c 0
 302 4 279 9 253 22 c 0
 216 37 177 54 147 74 c 1
 120 33 79 4 0 -0 c 1
 -25 1 -50 24 -50 50 c 0
193 160 m 1
 224 135 306 100 343 100 c 0
 362 100 370 119 364 140 c 0
 348 196 311 247 273 247 c 0
 256 247 238 237 223 212 c 0
 213 195 204 177 193 160 c 1
EndSplineSet
Colour: ffda6b
EndChar

StartChar: _.nun.isol
Encoding: 65588 -1 52
GlifName: _.nun.isol
Width: 654
VWidth: 1305
GlyphClass: 1
UnlinkRmOvrlpSave: 1
Flags: HMW
LayerCount: 2
Fore
SplineSet
75 -81 m 0
 75 -28 91 38 126 116 c 1
 156 100 l 1
 138 49 130 6 130 -29 c 0
 130 -135 203 -175 286 -175 c 0
 287 -175 288 -175 289 -175 c 0
 394 -175 516 -109 527 -43 c 1
 520 21 480 104 453 152 c 1
 500 251 l 1
 535 186 579 95 579 15 c 0
 579 13 579 10 579 8 c 0
 579 -2 577 -28 576 -37 c 0
 560 -185 412 -276 282 -276 c 0
 171 -275 75 -215 75 -81 c 0
EndSplineSet
Colour: ffda6b
EndChar

StartChar: _.nun.fina
Encoding: 65589 -1 53
GlifName: _.nun.fina
Width: 688
VWidth: 1413
GlyphClass: 1
UnlinkRmOvrlpSave: 1
Flags: HMW
LayerCount: 2
Fore
SplineSet
75 -81 m 0
 75 -28 91 38 126 116 c 1
 156 100 l 1
 138 49 130 6 130 -29 c 0
 130 -135 203 -175 286 -175 c 0
 287 -175 288 -175 289 -175 c 0
 394 -175 516 -109 527 -43 c 1
 520 21 480 104 453 152 c 1
 500 251 l 1
 512 228 526 201 538 173 c 1
 570 125 606 100 688 100 c 1
 688 -0 l 1
 650 0 613 5 579 22 c 1
 579 8 l 2
 579 -2 577 -28 576 -37 c 0
 560 -185 412 -276 282 -276 c 0
 171 -275 75 -215 75 -81 c 0
EndSplineSet
Colour: ffda6b
EndChar

StartChar: _.vav.isol
Encoding: 65590 -1 54
GlifName: _.vav.isol
Width: 473
VWidth: 1304
GlyphClass: 1
UnlinkRmOvrlpSave: 1
Flags: HMW
LayerCount: 2
Fore
SplineSet
253 300 m 0
 325 300 398 212 398 31 c 2
 398 29 l 1
 394 -105 304 -250 185 -250 c 2
 77 -250 l 1
 76 -246 75 -243 75 -239 c 0
 75 -227 83 -216 97 -214 c 0
 197 -200 293 -110 331 11 c 1
 331 15 l 1
 302 6 271 0 241 -0 c 0
 178 0 124 26 124 105 c 0
 124 115 124 126 126 138 c 0
 155 255 201 300 253 300 c 0
315 114 m 1
 298 163 269 197 237 197 c 0
 214 197 185 181 172 143 c 1
 170 115 195 99 236 99 c 0
 258 99 286 104 315 114 c 1
EndSplineSet
Colour: ffda6b
EndChar

StartChar: _.vav.fina
Encoding: 65591 -1 55
GlifName: _.vav.fina
Width: 456
VWidth: 1304
GlyphClass: 1
UnlinkRmOvrlpSave: 1
Flags: HMW
LayerCount: 2
Fore
SplineSet
253 300 m 0
 316 300 378 234 395 100 c 1
 456 100 l 1
 456 -0 l 1
 396 -0 l 1
 381 -126 296 -250 185 -250 c 2
 77 -250 l 1
 76 -246 75 -243 75 -239 c 0
 75 -227 83 -216 97 -214 c 0
 194 -200 286 -116 327 -0 c 1
 273 -0 l 2
 268 0 262 0 255 -0 c 0
 208 0 124 6 124 104 c 0
 124 114 124 126 126 138 c 1
 155 255 201 300 253 300 c 0
320 100 m 1
 304 158 271 197 237 197 c 0
 214 197 185 181 172 143 c 1
 167 104 218 99 258 99 c 0
 271 99 283 100 291 100 c 2
 320 100 l 1
EndSplineSet
Colour: ffda6b
EndChar

StartChar: _.dal.isol
Encoding: 65592 -1 56
GlifName: _.dal.isol
Width: 509
VWidth: 1304
GlyphClass: 1
UnlinkRmOvrlpSave: 1
Flags: HMW
LayerCount: 2
Fore
SplineSet
434 166 m 0
 434 39 348 -25 198 -25 c 0
 121 -25 75 0 75 78 c 0
 75 86 76 95 77 104 c 0
 77 113 91 125 100 125 c 0
 104 125 107 123 107 117 c 0
 107 87 152 75 205 75 c 0
 270 75 346 95 371 134 c 0
 371 136 371 138 371 140 c 0
 371 220 231 325 190 345 c 1
 239 443 l 1
 334 388 434 285 434 166 c 0
EndSplineSet
Colour: ffda6b
EndChar

StartChar: _.dal.fina
Encoding: 65593 -1 57
GlifName: _.dal.fina
Width: 532
VWidth: 1304
GlyphClass: 1
UnlinkRmOvrlpSave: 1
Flags: HMW
LayerCount: 2
Fore
SplineSet
75 95 m 0
 75 104 87 114 95 114 c 0
 99 114 102 112 103 107 c 0
 109 79 134 70 171 70 c 0
 244 70 303 97 340 139 c 1
 252 352 l 1
 297 442 l 1
 306 438 l 1
 410 178 l 2
 427 136 437 100 532 100 c 1
 532 -0 l 1
 468 0 411 14 374 69 c 1
 330 3 247 -30 178 -30 c 0
 124 -30 76 -3 75 95 c 0
EndSplineSet
Colour: ffda6b
EndChar

StartChar: _.ree.isol
Encoding: 65594 -1 58
GlifName: _.ree.isol
Width: 473
VWidth: 1304
GlyphClass: 1
UnlinkRmOvrlpSave: 1
Flags: HMW
LayerCount: 2
Fore
SplineSet
75 -239 m 0
 75 -227 83 -216 97 -214 c 0
 179 -203 336 -98 336 30 c 0
 336 44 316 84 257 175 c 1
 305 273 l 1
 355 189 380 139 390 103 c 0
 396 82 398 59 398 36 c 0
 398 -100 306 -250 185 -250 c 2
 77 -250 l 1
 76 -246 75 -243 75 -239 c 0
EndSplineSet
Colour: ffda6b
EndChar

StartChar: _.ree.fina
Encoding: 65595 -1 59
GlifName: _.ree.fina
Width: 512
VWidth: 1304
GlyphClass: 1
UnlinkRmOvrlpSave: 1
Flags: HMW
LayerCount: 2
Fore
SplineSet
75 -239 m 0
 75 -227 83 -216 97 -214 c 0
 179 -203 336 -98 336 30 c 0
 336 44 316 84 257 175 c 1
 305 273 l 1
 328 234 347 203 359 176 c 1
 392 127 428 100 512 100 c 1
 512 -0 l 1
 473 0 433 4 397 24 c 1
 392 -109 303 -250 185 -250 c 2
 77 -250 l 1
 76 -246 75 -243 75 -239 c 0
EndSplineSet
Colour: ffda6b
EndChar

StartChar: _.he8.isol
Encoding: 65596 -1 60
GlifName: _.he8.isol
Width: 440
VWidth: 1304
GlyphClass: 1
UnlinkRmOvrlpSave: 1
Flags: HMW
LayerCount: 2
Fore
SplineSet
75 113 m 0
 75 171 106 245 159 321 c 1
 131 349 l 1
 175 447 l 1
 319 303 l 1
 349 264 365 212 365 162 c 0
 365 78 319 0 212 -0 c 0
 117 0 75 45 75 113 c 0
133 153 m 0
 133 117 165 99 223 99 c 0
 285 99 308 123 308 151 c 0
 308 171 295 193 276 209 c 1
 187 295 l 1
 191 287 l 1
 154 230 133 184 133 153 c 0
EndSplineSet
Colour: ffda6b
EndChar

StartChar: _.he8.fina
Encoding: 65597 -1 61
GlifName: _.he8.fina
Width: 474
VWidth: 1304
GlyphClass: 1
UnlinkRmOvrlpSave: 1
Flags: HMW
LayerCount: 2
Fore
SplineSet
75 147 m 0
 75 241 196 303 246 332 c 1
 240 369 l 1
 289 454 l 1
 298 447 l 1
 332 260 l 2
 350 158 377 100 474 100 c 1
 474 -0 l 1
 385 0 334 40 304 92 c 1
 269 74 223 62 181 62 c 0
 124 62 75 85 75 147 c 0
129 171 m 0
 129 162 146 155 170 155 c 0
 201 155 238 167 271 180 c 1
 264 210 260 240 255 271 c 1
 184 226 129 191 129 171 c 0
EndSplineSet
Colour: ffda6b
EndChar

StartChar: _.he8.medi
Encoding: 65598 -1 62
GlifName: _.he8.medi
Width: 434
VWidth: 1304
GlyphClass: 1
UnlinkRmOvrlpSave: 1
Flags: HMW
LayerCount: 2
Fore
SplineSet
339 -0 m 1
 357 -24 368 -48 368 -81 c 0
 368 -118 350 -151 330 -170 c 1
 330 -169 l 1
 311 -189 286 -198 259 -198 c 0
 185 -198 98 -126 82 5 c 1
 67 1 52 0 40 -0 c 2
 -1 -0 l 2
 -26 0 -50 24 -50 50 c 0
 -50 76 -26 100 -1 100 c 0
 27 100 55 100 82 102 c 1
 103 235 196 367 239 400 c 0
 244 404 250 406 255 406 c 0
 289 406 314 313 327 224 c 0
 328 218 329 213 329 207 c 0
 329 171 303 134 265 100 c 1
 434 100 l 1
 434 -0 l 1
 339 -0 l 1
138 111 m 1
 195 123 244 145 281 175 c 1
 269 226 254 301 245 301 c 0
 244 300 l 0
 217 275 165 191 138 111 c 1
140 -4 m 1
 167 -58 218 -102 276 -102 c 0
 290 -102 304 -99 318 -94 c 1
 290 -48 226 -19 140 -4 c 1
EndSplineSet
Colour: ffda6b
EndChar

StartChar: _.he8.init
Encoding: 65599 -1 63
GlifName: _.he8.init
Width: 538
VWidth: 1304
GlyphClass: 1
UnlinkRmOvrlpSave: 1
Flags: HMW
LayerCount: 2
Fore
SplineSet
-50 50 m 0
 -49 75 -26 100 -1 100 c 0
 35 100 69 106 99 113 c 1
 73 139 57 171 57 207 c 0
 57 264 107 332 132 359 c 1
 180 457 l 1
 296 384 376 336 419 290 c 0
 450 257 463 224 463 191 c 0
 463 154 447 119 425 85 c 0
 407 51 362 34 325 34 c 0
 275 34 226 44 185 60 c 1
 136 19 73 0 0 -0 c 1
 -25 1 -50 24 -50 50 c 0
196 159 m 1
 227 179 238 198 238 236 c 0
 238 277 211 302 179 302 c 0
 161 302 142 295 126 278 c 1
 117 264 114 251 114 239 c 0
 114 204 147 177 196 159 c 1
290 268 m 1
 286 231 265 178 249 143 c 1
 296 132 351 126 401 125 c 1
 402 184 361 222 290 268 c 1
EndSplineSet
Colour: ffda6b
EndChar

StartChar: _.yeh.fina
Encoding: 65600 -1 64
GlifName: _.yeh.fina
Width: 602
VWidth: 1304
GlyphClass: 1
UnlinkRmOvrlpSave: 1
Flags: HMW
LayerCount: 2
Fore
SplineSet
75 -81 m 0
 75 -28 91 38 126 116 c 1
 156 100 l 1
 138 49 130 6 130 -29 c 0
 130 -135 203 -175 286 -175 c 0
 287 -175 288 -175 289 -175 c 0
 364 -175 446 -143 492 -100 c 1
 496 -92 499 -84 499 -75 c 0
 499 -48 475 -16 394 10 c 0
 379 15 373 27 373 41 c 0
 373 76 410 126 438 126 c 0
 440 126 442 126 444 125 c 0
 497 116 532 100 602 100 c 1
 602 -0 l 1
 587 0 573 1 558 2 c 1
 565 -16 569 -34 569 -52 c 0
 569 -79 561 -105 548 -126 c 0
 496 -221 384 -276 282 -276 c 0
 171 -275 75 -215 75 -81 c 0
EndSplineSet
Colour: ffda6b
EndChar

StartChar: _.yeh.isol
Encoding: 65601 -1 65
GlifName: _.yeh.isol
Width: 675
VWidth: 1304
GlyphClass: 1
UnlinkRmOvrlpSave: 1
Flags: HMW
LayerCount: 2
Fore
SplineSet
519 228 m 0
 476 228 396 159 396 119 c 0
 396 108 403 99 420 95 c 0
 512 74 582 55 582 -16 c 0
 582 -38 575 -64 561 -97 c 1
 518 -209 394 -276 282 -276 c 0
 171 -275 75 -215 75 -81 c 0
 75 -28 91 38 126 116 c 1
 156 100 l 1
 138 49 130 6 130 -29 c 0
 130 -135 203 -175 286 -175 c 0
 287 -175 288 -175 289 -175 c 0
 365 -175 452 -140 496 -96 c 1
 509 -81 514 -69 514 -59 c 0
 514 -22 439 -15 370 7 c 0
 338 18 325 48 325 85 c 0
 325 181 417 328 516 329 c 0
 574 329 600 271 600 234 c 0
 600 220 595 202 584 202 c 0
 573 202 561 228 519 228 c 0
EndSplineSet
Colour: ffda6b
EndChar

StartChar: _.hamze.isol
Encoding: 65602 -1 66
GlifName: _.hamze.isol
Width: 489
VWidth: 1304
GlyphClass: 2
Flags: HMW
LayerCount: 2
Fore
SplineSet
368 247 m 1
 332 273 299 283 267 283 c 0
 235 283 187 255 187 232 c 0
 187 166 289 147 362 147 c 0
 383 147 401 149 414 151 c 1
 385 84 l 1
 253 66 186 42 91 -0 c 1
 75 66 l 1
 129 91 146 99 192 113 c 1
 192 120 119 154 119 228 c 0
 119 304 201 363 256 363 c 0
 311 363 373 303 394 269 c 1
 368 247 l 1
EndSplineSet
Colour: ffda6b
EndChar

StartChar: _.keshide.medi
Encoding: 65603 -1 67
GlifName: _.keshide.medi
Width: 235
VWidth: 1304
GlyphClass: 2
Flags: HMW
LayerCount: 2
Fore
SplineSet
-12 100 m 2
 235 100 l 1
 235 0 l 1
 -12 0 l 2
 -24 0 -33 5 -40 15 c 0
 -47 25 -50 37 -50 50 c 0
 -50 63 -47 75 -40 85 c 0
 -33 95 -24 100 -12 100 c 2
EndSplineSet
Colour: ffda6b
EndChar

StartChar: _.dot.1u
Encoding: 65604 -1 68
GlifName: _.dot.1u
Width: 0
VWidth: 1304
GlyphClass: 2
Flags: HMW
LayerCount: 2
Fore
SplineSet
3 59 m 2
 -1 64 -1 70 3 74 c 2
 59 130 l 2
 64 135 70 135 74 130 c 2
 131 74 l 2
 135 70 135 64 131 60 c 2
 73 2 l 2
 69 -2 63 -2 59 2 c 2
 3 59 l 2
EndSplineSet
Colour: ffda6b
EndChar

StartChar: _.dot.2u
Encoding: 65605 -1 69
GlifName: _.dot.2u
Width: 0
VWidth: 1304
GlyphClass: 2
UnlinkRmOvrlpSave: 1
Flags: HMW
LayerCount: 2
Fore
SplineSet
2 54 m 2
 0 58 0 64 2 66 c 2
 54 118 l 2
 58 122 63 122 67 118 c 2
 121 64 l 1
 174 118 l 2
 178 122 183 122 187 118 c 2
 237 68 l 2
 241 64 241 59 237 55 c 2
 185 4 l 2
 183 0 177 0 173 4 c 2
 119 57 l 1
 66 4 l 2
 62 0 58 0 54 4 c 2
 2 54 l 2
EndSplineSet
Colour: ffda6b
EndChar

StartChar: _.dot.3u
Encoding: 65606 -1 70
GlifName: _.dot.3u
Width: 0
VWidth: 1304
GlyphClass: 2
UnlinkRmOvrlpSave: 1
Flags: HMW
LayerCount: 2
Fore
SplineSet
2 54 m 2
 0 58 0 64 2 66 c 2
 54 118 l 2
 58 122 63 122 67 118 c 2
 118 68 l 2
 122 64 122 59 118 55 c 2
 66 4 l 2
 62 0 58 0 54 4 c 2
 2 54 l 2
67 176 m 2
 63 178 63 185 67 187 c 2
 115 236 l 2
 119 240 123 240 127 236 c 2
 175 188 l 2
 179 184 179 180 175 176 c 2
 127 127 l 2
 123 125 117 125 115 127 c 2
 67 176 l 2
124 55 m 2
 120 59 120 64 124 68 c 2
 174 119 l 2
 178 123 184 123 188 119 c 2
 238 69 l 2
 242 65 242 59 238 55 c 2
 187 5 l 2
 183 1 178 1 174 5 c 2
 124 55 l 2
EndSplineSet
Colour: ffda6b
EndChar

StartChar: _.dot.1d
Encoding: 65607 -1 71
GlifName: _.dot.1d
Width: 0
VWidth: 1304
GlyphClass: 2
Flags: HMW
LayerCount: 2
Fore
SplineSet
3 -61 m 2
 59 -3 l 2
 64 1 70 1 74 -3 c 2
 131 -59 l 2
 135 -63 135 -70 131 -74 c 2
 73 -131 l 2
 69 -136 63 -136 59 -131 c 2
 3 -74 l 2
 -1 -70 -1 -65 3 -61 c 2
EndSplineSet
Colour: ffda6b
EndChar

StartChar: _.dot.2d
Encoding: 65608 -1 72
GlifName: _.dot.2d
Width: 0
VWidth: 1304
GlyphClass: 2
UnlinkRmOvrlpSave: 1
Flags: HMW
LayerCount: 2
Fore
SplineSet
2 -56 m 2
 54 -4 l 2
 58 0 63 0 67 -4 c 2
 118 -54 l 2
 122 -58 122 -65 118 -67 c 2
 66 -118 l 2
 62 -122 58 -122 54 -118 c 2
 2 -68 l 2
 0 -64 0 -58 2 -56 c 2
124 -54 m 2
 174 -3 l 2
 178 1 184 1 188 -3 c 2
 238 -53 l 2
 242 -57 242 -63 238 -67 c 2
 187 -117 l 2
 183 -121 178 -121 174 -117 c 2
 124 -67 l 2
 120 -63 120 -58 124 -54 c 2
EndSplineSet
Colour: ffda6b
EndChar

StartChar: _.dot.3d
Encoding: 65609 -1 73
GlifName: _.dot.3d
Width: 0
VWidth: 1304
GlyphClass: 2
UnlinkRmOvrlpSave: 1
Flags: HMW
LayerCount: 2
Fore
SplineSet
2 -56 m 2
 54 -4 l 2
 58 0 63 0 67 -4 c 2
 118 -54 l 2
 122 -58 122 -65 118 -67 c 2
 66 -118 l 2
 62 -122 58 -122 54 -118 c 2
 2 -68 l 2
 0 -64 0 -58 2 -56 c 2
67 -175 m 2
 115 -126 l 2
 119 -122 123 -122 127 -126 c 2
 175 -174 l 2
 179 -178 179 -182 175 -186 c 2
 127 -234 l 2
 123 -238 117 -238 115 -234 c 2
 67 -186 l 2
 63 -184 63 -177 67 -175 c 2
124 -54 m 2
 174 -3 l 2
 178 1 184 1 188 -3 c 2
 238 -53 l 2
 242 -57 242 -63 238 -67 c 2
 187 -117 l 2
 183 -121 178 -121 174 -117 c 2
 124 -67 l 2
 120 -63 120 -58 124 -54 c 2
EndSplineSet
Colour: ffda6b
EndChar

StartChar: _.num.0
Encoding: 65611 -1 75
GlifName: _.num.0
Width: 1300
VWidth: 1424
GlyphClass: 2
Flags: HM
LayerCount: 2
Fore
SplineSet
805 326 m 0
 805 411 854 468 928 468 c 0
 929 468 930 468 931 468 c 0
 1009 468 1055 406 1055 326 c 0
 1055 241 1005 194 931 194 c 0
 855 195 805 244 805 326 c 0
856 329 m 0
 856 275 888 250 931 250 c 0
 975 250 1006 279 1006 329 c 0
 1006 379 975 407 931 407 c 0
 885 407 856 379 856 329 c 0
EndSplineSet
Colour: ffda6b
EndChar

StartChar: _.num.1
Encoding: 65612 -1 76
GlifName: _.num.1
Width: 335
VWidth: 1331
GlyphClass: 2
Flags: HMW
LayerCount: 2
Fore
SplineSet
75 553 m 1
 150 700 l 1
 247 451 260 342 260 150 c 0
 260 105 258 56 258 -0 c 1
 173 -25 l 1
 173 -8 174 9 174 26 c 0
 174 212 164 371 75 553 c 1
EndSplineSet
Colour: ffda6b
EndChar

StartChar: _.num.2
Encoding: 65613 -1 77
GlifName: _.num.2
Width: 597
VWidth: 1331
GlyphClass: 2
Flags: HMW
LayerCount: 2
Fore
SplineSet
495 721 m 0
 520 721 522 708 522 683 c 0
 522 490 420 392 317 392 c 0
 292 392 266 398 242 410 c 1
 257 311 260 227 260 147 c 0
 260 98 258 50 258 -0 c 1
 173 -25 l 1
 173 -11 174 4 174 17 c 0
 174 239 162 354 75 592 c 1
 172 704 l 1
 181 678 l 1
 181 681 l 1
 200 601 256 536 339 536 c 0
 414 536 456 619 456 694 c 0
 456 697 455 700 455 703 c 0
 455 712 477 721 495 721 c 0
EndSplineSet
Colour: ffda6b
EndChar

StartChar: _.num.3
Encoding: 65614 -1 78
GlifName: _.num.3
Width: 810
VWidth: 1331
GlyphClass: 2
Flags: HMW
LayerCount: 2
Fore
SplineSet
477 711 m 0
 500 711 505 700 505 676 c 0
 505 643 501 614 497 586 c 1
 513 579 531 575 551 575 c 0
 556 575 561 575 566 576 c 0
 629 581 669 664 669 733 c 0
 669 736 668 740 668 743 c 0
 668 752 689 760 707 760 c 0
 721 760 734 755 735 741 c 0
 735 734 735 727 735 720 c 0
 735 528 632 431 529 431 c 0
 499 431 469 440 441 457 c 1
 403 407 350 382 298 382 c 0
 280 382 262 385 244 391 c 1
 257 314 260 242 260 152 c 0
 260 107 258 57 258 -0 c 1
 173 -25 l 1
 173 -8 174 9 174 26 c 0
 174 212 164 371 75 553 c 1
 150 700 l 1
 159 677 167 654 176 631 c 0
 201 571 252 526 321 526 c 0
 395 526 437 609 437 684 c 0
 437 687 437 690 437 693 c 0
 437 702 458 711 477 711 c 0
EndSplineSet
Colour: ffda6b
EndChar

StartChar: _.num.4.fa
Encoding: 65615 -1 79
GlifName: _.num.4.fa
Width: 679
VWidth: 1331
GlyphClass: 2
Flags: HMW
LayerCount: 2
Fore
SplineSet
75 553 m 1
 150 700 l 1
 173 638 197 576 215 513 c 0
 230 471 254 443 284 425 c 1
 262 464 247 509 247 548 c 0
 247 555 248 561 249 567 c 0
 249 569 250 573 250 575 c 0
 273 652 344 694 424 694 c 0
 475 694 529 677 576 641 c 1
 555 588 l 1
 527 595 500 600 473 600 c 0
 426 600 381 587 343 553 c 1
 349 494 395 412 438 401 c 1
 495 408 552 427 604 449 c 1
 592 368 l 1
 526 337 437 298 353 298 c 0
 318 298 283 305 252 322 c 1
 258 268 260 213 260 148 c 0
 260 104 258 55 258 -0 c 1
 173 -25 l 1
 173 -8 174 9 174 26 c 0
 174 212 164 371 75 553 c 1
EndSplineSet
Colour: ffda6b
EndChar

StartChar: _.num.4.ar
Encoding: 65616 -1 80
GlifName: _.num.4.ar
Width: 503
VWidth: 1331
GlyphClass: 2
Flags: HMW
LayerCount: 2
Fore
SplineSet
75 141 m 0
 75 162 81 185 96 203 c 0
 111 221 155 266 229 337 c 1
 135 397 89 434 89 450 c 0
 89 460 99 480 117 511 c 0
 137 542 153 561 165 570 c 0
 211 603 252 630 290 650 c 0
 329 668 353 682 364 688 c 0
 374 693 383 697 388 697 c 0
 393 697 396 693 396 688 c 0
 396 682 387 657 367 614 c 1
 229 540 l 2
 227 539 166 501 166 497 c 0
 166 490 199 469 262 433 c 0
 325 396 357 375 357 370 c 0
 357 354 165 211 160 193 c 0
 160 178 197 158 270 128 c 0
 344 97 395 82 428 82 c 1
 406 30 386 5 369 5 c 0
 338 5 282 21 203 54 c 0
 118 93 76 121 75 141 c 0
EndSplineSet
Colour: ffda6b
EndChar

StartChar: _.num.5.fa
Encoding: 65617 -1 81
GlifName: _.num.5.fa
Width: 649
VWidth: 1331
GlyphClass: 2
Flags: HMW
LayerCount: 2
Fore
SplineSet
319 72 m 1
 296 25 236 -5 184 -5 c 0
 128 -5 75 31 75 122 c 0
 75 154 82 194 97 240 c 0
 135 359 211 492 251 569 c 1
 242 580 233 591 224 602 c 1
 273 709 l 1
 309 651 475 447 544 273 c 0
 565 220 574 176 574 138 c 0
 574 38 513 -11 444 -11 c 0
 393 -11 347 16 319 72 c 1
463 86 m 0
 486 86 504 100 504 136 c 0
 504 195 454 313 290 520 c 1
 180 330 144 217 144 154 c 0
 144 105 163 87 194 87 c 0
 239 87 277 110 290 186 c 1
 332 198 l 1
 350 142 395 86 463 86 c 0
EndSplineSet
Colour: ffda6b
EndChar

StartChar: _.num.5.ar
Encoding: 65618 -1 82
GlifName: _.num.5.ar
Width: 591
VWidth: 1331
GlyphClass: 2
Flags: HMW
LayerCount: 2
Fore
SplineSet
75 134 m 0
 75 234 178 615 308 615 c 0
 457 615 516 285 516 171 c 0
 516 82 356 -3 270 -3 c 0
 188 -3 75 56 75 134 c 0
135 207 m 0
 135 152 198 93 278 93 c 0
 331 93 458 142 458 192 c 0
 458 246 374 508 308 508 c 0
 237 508 135 266 135 207 c 0
EndSplineSet
Colour: ffda6b
EndChar

StartChar: _.num.6.fa
Encoding: 65619 -1 83
GlifName: _.num.6.fa
Width: 633
VWidth: 1331
GlyphClass: 2
Flags: HMW
LayerCount: 2
Fore
SplineSet
169 489 m 0
 169 606 250 674 352 674 c 0
 403 674 458 656 505 620 c 1
 484 569 l 1
 456 576 429 580 402 580 c 0
 347 580 297 562 256 516 c 1
 254 462 311 383 358 361 c 1
 417 400 483 431 558 454 c 1
 529 362 l 1
 346 255 254 207 138 -29 c 1
 75 34 l 1
 133 144 202 235 287 308 c 1
 236 325 169 391 169 489 c 0
EndSplineSet
Colour: ffda6b
EndChar

StartChar: _.num.6.ar
Encoding: 65620 -1 84
GlifName: _.num.6.ar
Width: 601
VWidth: 1331
GlyphClass: 2
Flags: HMW
LayerCount: 2
Fore
SplineSet
217 610 m 0
 233 610 371 629 389 629 c 0
 419 629 433 615 434 585 c 0
 434 293 464 137 526 93 c 1
 520 54 508 19 498 -20 c 1
 457 14 431 52 416 90 c 0
 394 148 382 246 382 411 c 2
 382 484 l 2
 382 510 378 523 369 524 c 1
 205 509 l 1
 118 509 75 548 75 624 c 0
 75 664 85 676 95 676 c 0
 103 676 112 669 116 661 c 0
 134 628 168 611 217 610 c 0
EndSplineSet
Colour: ffda6b
EndChar

StartChar: _.num.7
Encoding: 65621 -1 85
GlifName: _.num.7
Width: 605
VWidth: 1331
GlyphClass: 2
Flags: HMW
LayerCount: 2
Fore
SplineSet
77 565 m 2
 119 647 l 1
 131 644 l 1
 215 515 271 377 302 245 c 1
 333 377 390 515 474 644 c 1
 486 647 l 1
 528 565 l 2
 530 561 531 559 526 549 c 0
 399 353 345 197 330 11 c 1
 278 -24 l 1
 268 178 213 342 78 549 c 0
 73 559 75 561 77 565 c 2
EndSplineSet
Colour: ffda6b
EndChar

StartChar: _.num.8
Encoding: 65622 -1 86
GlifName: _.num.8
Width: 605
VWidth: 1331
GlyphClass: 2
Flags: HMW
LayerCount: 2
Fore
SplineSet
77 59 m 2
 75 63 73 65 78 75 c 0
 213 282 268 445 278 647 c 1
 330 614 l 1
 345 427 399 271 526 75 c 0
 531 65 530 63 528 59 c 2
 486 -24 l 1
 474 -20 l 1
 390 109 333 247 302 380 c 1
 271 247 215 109 131 -20 c 1
 119 -24 l 1
 77 59 l 2
EndSplineSet
Colour: ffda6b
EndChar

StartChar: _.num.9
Encoding: 65623 -1 87
GlifName: _.num.9
Width: 552
VWidth: 1331
GlyphClass: 2
Flags: HMW
LayerCount: 2
Fore
SplineSet
208 289 m 0
 116 289 75 354 75 431 c 0
 75 442 75 453 77 464 c 0
 95 601 164 660 219 660 c 0
 220 660 l 0
 275 660 349 592 359 454 c 0
 369 315 355 149 477 79 c 1
 422 -4 l 1
 359 39 305 84 299 308 c 1
 275 298 234 289 208 289 c 0
210 551 m 0
 168 551 126 505 126 462 c 0
 126 425 175 395 208 395 c 0
 244 395 274 403 296 413 c 1
 292 474 257 551 210 551 c 0
EndSplineSet
Colour: ffda6b
EndChar

StartChar: _.sing.backslash
Encoding: 65624 -1 88
GlifName: _.sing.backslash
Width: 601
VWidth: 1197
GlyphClass: 2
Flags: HMW
LayerCount: 2
Fore
SplineSet
75 770 m 0
 75 790 84 800 101 800 c 0
 107 800 120 790 138 770 c 0
 203 686 275 574 351 432 c 0
 427 290 485 162 526 50 c 1
 526 40 l 2
 526 20 517 11 502 11 c 0
 488 11 469 24 464 34 c 0
 363 268 238 502 85 737 c 0
 78 749 75 760 75 770 c 0
EndSplineSet
Colour: ffda6b
EndChar

StartChar: _.sing.slash
Encoding: 65625 -1 89
GlifName: _.sing.slash
Width: 601
VWidth: 1197
GlyphClass: 2
Flags: HMW
LayerCount: 2
Fore
SplineSet
75 40 m 0
 75 49 78 62 85 74 c 0
 238 309 363 543 464 777 c 0
 469 787 488 800 502 800 c 0
 517 800 526 790 526 770 c 2
 526 761 l 1
 485 649 427 521 351 378 c 0
 275 236 203 124 138 40 c 0
 120 20 107 11 101 11 c 0
 84 11 75 20 75 40 c 0
EndSplineSet
Colour: ffda6b
EndChar

StartChar: _.sing.tajob
Encoding: 65626 -1 90
GlifName: _.sing.tajob
Width: 292
VWidth: 1197
GlyphClass: 2
Flags: HMW
LayerCount: 2
Fore
SplineSet
75 68 m 0
 75 107 106 139 145 139 c 0
 184 139 217 107 217 68 c 0
 217 29 184 -4 145 -4 c 0
 106 -4 75 29 75 68 c 0
92 679 m 1
 92 717 119 739 145 739 c 0
 170 739 194 720 196 679 c 1
 191 557 178 340 167 218 c 0
 165 213 155 210 146 210 c 0
 137 210 129 213 128 218 c 0
 119 357 99 556 92 679 c 1
EndSplineSet
Colour: ffda6b
EndChar

StartChar: _.sing.soal
Encoding: 65627 -1 91
GlifName: _.sing.soal
Width: 487
VWidth: 1304
GlyphClass: 2
Flags: HMW
LayerCount: 2
Fore
SplineSet
75 573 m 0
 75 671 155 752 256 752 c 0
 303 752 353 734 403 694 c 1
 409 691 412 686 412 680 c 0
 412 656 375 612 355 612 c 0
 353 612 352 612 351 613 c 0
 329 634 295 645 263 645 c 0
 214 645 168 621 168 578 c 0
 168 549 189 510 247 464 c 0
 303 418 335 373 335 329 c 0
 335 274 285 221 174 170 c 1
 155 197 l 1
 210 250 243 284 243 314 c 0
 243 332 231 349 203 369 c 0
 112 432 75 507 75 573 c 0
170 71 m 0
 170 105 196 134 232 134 c 0
 271 134 292 102 292 70 c 0
 292 39 273 8 234 8 c 0
 198 8 170 35 170 71 c 0
EndSplineSet
Colour: ffda6b
EndChar

StartChar: _.sing.beezafeh
Encoding: 65628 -1 92
GlifName: _.sing.beezafeh
Width: 608
VWidth: 1352
GlyphClass: 2
Flags: HMW
LayerCount: 2
Fore
SplineSet
75 236 m 0
 75 258 84 280 104 280 c 2
 264 280 l 1
 264 439 l 2
 264 459 287 469 310 469 c 0
 332 469 354 459 354 439 c 2
 354 280 l 1
 504 280 l 2
 523 280 533 258 533 235 c 0
 533 213 524 191 504 191 c 2
 354 191 l 1
 354 39 l 2
 354 20 331 11 309 11 c 0
 287 11 264 20 264 39 c 2
 264 191 l 1
 104 191 l 2
 85 191 75 213 75 236 c 0
EndSplineSet
Colour: ffda6b
EndChar

StartChar: _.sing.menha
Encoding: 65629 -1 93
GlifName: _.sing.menha
Width: 608
VWidth: 0
GlyphClass: 2
Flags: HMW
LayerCount: 2
Fore
SplineSet
75 236 m 0
 75 258 84 280 104 280 c 2
 504 280 l 2
 523 280 533 258 533 235 c 0
 533 213 524 191 504 191 c 2
 104 191 l 2
 85 191 75 213 75 236 c 0
EndSplineSet
Colour: ffda6b
EndChar

StartChar: _.sing.virgul
Encoding: 65631 -1 95
GlifName: _.sing.virgul
Width: 289
VWidth: 1197
GlyphClass: 2
Flags: HMW
LayerCount: 2
Fore
SplineSet
75 94 m 0
 75 149 113 214 198 241 c 1
 207 208 l 1
 180 197 141 159 142 125 c 1
 146 126 151 127 155 127 c 0
 186 127 214 100 214 70 c 0
 214 36 188 10 149 10 c 0
 101 10 75 48 75 94 c 0
EndSplineSet
Colour: ffda6b
EndChar

StartChar: _.sing.dot_virgul
Encoding: 65632 -1 96
GlifName: _.sing.dot_virgul
Width: 292
VWidth: 1304
GlyphClass: 2
Flags: HMW
LayerCount: 2
Fore
SplineSet
75 82 m 0
 75 121 107 154 146 154 c 0
 185 154 217 121 217 82 c 0
 217 44 185 12 146 12 c 0
 107 12 75 44 75 82 c 0
76 285 m 0
 76 339 113 404 198 431 c 1
 208 399 l 1
 181 387 143 349 144 315 c 1
 149 316 153 317 158 317 c 0
 188 317 214 291 214 261 c 0
 214 227 189 200 150 200 c 0
 102 200 76 239 76 285 c 0
EndSplineSet
Colour: ffda6b
EndChar

StartChar: _.sing.2noqte
Encoding: 65633 -1 97
GlifName: _.sing.2noqte
Width: 292
VWidth: 1352
GlyphClass: 2
Flags: HMW
LayerCount: 2
Fore
SplineSet
75 82 m 0
 75 121 107 154 146 154 c 0
 185 154 217 121 217 82 c 0
 217 44 185 12 146 12 c 0
 107 12 75 44 75 82 c 0
75 303 m 0
 75 342 107 374 146 374 c 0
 185 374 217 342 217 303 c 0
 217 264 185 232 146 232 c 0
 107 232 75 264 75 303 c 0
EndSplineSet
Colour: ffda6b
EndChar

StartChar: _.sing.noqte
Encoding: 65634 -1 98
GlifName: _.sing.noqte
Width: 292
VWidth: 1352
GlyphClass: 2
Flags: HMW
LayerCount: 2
Fore
SplineSet
75 71 m 0
 75 110 106 141 145 141 c 0
 184 141 217 110 217 71 c 0
 217 32 184 0 145 -0 c 0
 106 0 75 32 75 71 c 0
EndSplineSet
Colour: ffda6b
EndChar

StartChar: _.sing.gheiomeh.right
Encoding: 65635 -1 99
GlifName: _.sing.gheiomeh.right
Width: 420
VWidth: 1352
GlyphClass: 2
Flags: HMW
LayerCount: 2
Fore
SplineSet
75 235 m 0
 75 320 108 406 189 454 c 0
 195 455 201 443 200 442 c 0
 160 376 143 303 143 233 c 0
 143 152 166 73 205 12 c 0
 206 10 202 -1 193 -0 c 0
 122 35 75 134 75 235 c 0
215 235 m 0
 215 320 249 406 330 454 c 0
 336 455 341 443 340 442 c 0
 301 376 283 304 283 234 c 0
 283 153 306 73 344 12 c 0
 346 10 342 -1 333 -0 c 0
 262 35 215 134 215 235 c 0
EndSplineSet
Colour: ffda6b
EndChar

StartChar: _.sing.gheiomeh.left
Encoding: 65636 -1 100
GlifName: _.sing.gheiomeh.left
Width: 420
VWidth: 1352
GlyphClass: 2
Flags: HMW
LayerCount: 2
Fore
SplineSet
76 12 m 0
 114 74 137 152 137 234 c 0
 137 304 120 377 80 442 c 0
 79 443 84 455 90 454 c 0
 171 406 205 320 205 235 c 0
 205 134 158 35 87 -0 c 0
 80 -1 74 10 76 12 c 0
215 12 m 0
 254 74 277 152 277 234 c 0
 277 304 260 377 221 442 c 0
 220 443 225 455 231 454 c 0
 312 406 345 320 345 235 c 0
 345 134 298 35 227 -0 c 0
 218 -1 214 10 215 12 c 0
EndSplineSet
Colour: ffda6b
EndChar

StartChar: _.sing.parantez.right
Encoding: 65637 -1 101
GlifName: _.sing.parantez.right
Width: 358
VWidth: 1352
GlyphClass: 2
Flags: HMW
LayerCount: 2
Fore
SplineSet
75 397 m 0
 75 550 133 704 245 800 c 1
 282 775 l 1
 200 678 158 539 158 399 c 0
 158 260 199 120 283 24 c 1
 246 -0 l 1
 131 94 75 245 75 397 c 0
EndSplineSet
Colour: ffda6b
EndChar

StartChar: _.sing.parantez.left
Encoding: 65638 -1 102
GlifName: _.sing.parantez.left
Width: 358
VWidth: 1352
GlyphClass: 2
Flags: HMW
LayerCount: 2
Fore
SplineSet
75 24 m 1
 159 120 200 260 200 399 c 0
 200 539 158 678 76 775 c 1
 113 800 l 1
 225 704 283 550 283 397 c 0
 283 245 227 94 112 -0 c 1
 75 24 l 1
EndSplineSet
Colour: ffda6b
EndChar

StartChar: _.sing.koroshe.right
Encoding: 65641 -1 105
GlifName: _.sing.koroshe.right
Width: 330
VWidth: 1197
GlyphClass: 2
Flags: HMW
LayerCount: 2
Fore
SplineSet
75 -61 m 1
 75 800 l 1
 255 800 l 1
 255 740 l 1
 155 740 l 1
 155 -0 l 1
 255 -0 l 1
 255 -61 l 1
 75 -61 l 1
EndSplineSet
Colour: ffda6b
EndChar

StartChar: _.sing.koroshe.left
Encoding: 65642 -1 106
GlifName: _.sing.koroshe.left
Width: 330
VWidth: 1197
GlyphClass: 2
Flags: HMW
LayerCount: 2
Fore
SplineSet
75 -0 m 1
 175 -0 l 1
 175 740 l 1
 75 740 l 1
 75 800 l 1
 255 800 l 1
 255 -61 l 1
 75 -61 l 1
 75 -0 l 1
EndSplineSet
Colour: ffda6b
EndChar

StartChar: _.sing.akolad.right
Encoding: 65643 -1 107
GlifName: _.sing.akolad.right
Width: 407
VWidth: 1197
GlyphClass: 2
Flags: HMW
LayerCount: 2
Fore
SplineSet
75 346 m 1
 75 364 75 383 75 401 c 1
 141 402 151 432 151 500 c 2
 151 676 l 2
 151 800 203 800 332 800 c 1
 332 751 l 1
 257 751 235 747 235 682 c 2
 235 502 l 2
 235 436 219 388 160 373 c 1
 219 359 235 312 235 244 c 2
 235 64 l 2
 235 -1 257 -4 332 -5 c 1
 332 -54 l 1
 203 -54 151 -54 151 70 c 2
 151 246 l 2
 151 314 141 344 75 346 c 1
EndSplineSet
Colour: ffda6b
EndChar

StartChar: _.sing.akolad.left
Encoding: 65644 -1 108
GlifName: _.sing.akolad.left
Width: 407
VWidth: 1197
GlyphClass: 2
Flags: HMW
LayerCount: 2
Fore
SplineSet
75 -5 m 1
 150 -4 172 -1 172 64 c 2
 172 244 l 2
 172 312 187 359 246 373 c 1
 187 388 172 436 172 502 c 2
 172 682 l 2
 172 747 150 751 75 751 c 1
 75 800 l 1
 203 800 255 800 255 676 c 2
 255 500 l 2
 255 432 264 402 332 401 c 1
 332 383 332 364 332 346 c 1
 264 344 255 314 255 246 c 2
 255 70 l 2
 255 -54 203 -54 75 -54 c 1
 75 -5 l 1
EndSplineSet
Colour: ffda6b
EndChar

StartChar: _.mark.maad
Encoding: 65645 -1 109
GlifName: _.mark.maad
Width: 0
VWidth: 1352
GlyphClass: 2
Flags: HMW
LayerCount: 2
Fore
SplineSet
0 -1 m 1
 12 58 38 70 70 70 c 0
 92 70 115 64 139 64 c 0
 159 64 180 69 198 84 c 1
 180 29 151 17 120 17 c 0
 96 17 71 24 49 24 c 0
 30 24 12 19 0 -1 c 1
EndSplineSet
Colour: ffda6b
EndChar

StartChar: _.mark.fatheh
Encoding: 65646 -1 110
GlifName: _.mark.fatheh
Width: 0
VWidth: 2310
GlyphClass: 2
Flags: HMW
LayerCount: 2
Fore
SplineSet
0 -3 m 1
 0 45 l 1
 199 112 l 1
 199 65 l 1
 0 -3 l 1
EndSplineSet
Colour: ffda6b
EndChar

StartChar: _.mark.kasreh
Encoding: 65647 -1 111
GlifName: _.mark.kasreh
Width: 0
VWidth: 2384
GlyphClass: 2
Flags: HMW
LayerCount: 2
Fore
SplineSet
0 -69 m 1
 197 -4 l 1
 197 -49 l 1
 0 -116 l 1
 0 -69 l 1
EndSplineSet
Colour: ffda6b
EndChar

StartChar: _.mark.zameh
Encoding: 65648 -1 112
GlifName: _.mark.zameh
Width: 0
VWidth: 2277
GlyphClass: 2
Flags: HMW
LayerCount: 2
Fore
SplineSet
127 265 m 0
 156 265 185 235 185 181 c 0
 185 159 179 137 169 119 c 1
 179 118 188 117 199 116 c 1
 185 66 l 1
 167 68 149 71 134 75 c 1
 96 37 43 11 16 -0 c 1
 0 50 l 1
 34 64 63 79 85 93 c 1
 49 113 36 140 36 166 c 0
 36 216 85 265 127 265 c 0
71 177 m 0
 71 160 86 140 127 128 c 1
 143 144 150 157 150 166 c 0
 145 201 127 214 110 214 c 0
 90 214 71 197 71 177 c 0
EndSplineSet
Colour: ffda6b
EndChar

StartChar: _.mark.tanvin_fatheh
Encoding: 65649 -1 113
GlifName: _.mark.tanvin_fatheh
Width: 0
VWidth: 2280
GlyphClass: 2
Flags: HMW
LayerCount: 2
Fore
SplineSet
0 -3 m 1
 0 45 l 1
 199 112 l 1
 199 65 l 1
 0 -3 l 1
0 82 m 1
 0 129 l 1
 199 196 l 1
 199 149 l 1
 0 82 l 1
EndSplineSet
Colour: ffda6b
EndChar

StartChar: _.mark.tanvin_kasreh
Encoding: 65650 -1 114
GlifName: _.mark.tanvin_kasreh
Width: 0
VWidth: 2413
GlyphClass: 2
Flags: HMW
LayerCount: 2
Fore
SplineSet
0 -67 m 1
 199 -0 l 1
 199 -47 l 1
 0 -113 l 1
 0 -67 l 1
0 -152 m 1
 199 -84 l 1
 199 -132 l 1
 0 -198 l 1
 0 -152 l 1
EndSplineSet
Colour: ffda6b
EndChar

StartChar: _.mark.tanvin_zameh
Encoding: 65651 -1 115
GlifName: _.mark.tanvin_zameh
Width: 0
VWidth: 2273
GlyphClass: 2
Flags: HMW
LayerCount: 2
Fore
SplineSet
0 130 m 0
 0 184 39 236 117 285 c 1
 148 285 l 1
 148 283 l 1
 79 230 47 189 47 161 c 0
 47 133 62 118 94 114 c 1
 90 83 76 69 49 69 c 0
 22 70 0 100 0 130 c 0
168 231 m 0
 193 231 219 205 219 158 c 0
 219 138 213 120 204 103 c 1
 213 102 221 102 231 101 c 1
 219 58 l 1
 202 59 189 61 175 65 c 1
 142 32 96 10 71 -0 c 1
 58 43 l 1
 88 57 112 69 132 81 c 1
 101 98 89 121 89 144 c 0
 89 188 131 231 168 231 c 0
120 154 m 0
 120 139 133 122 169 111 c 1
 183 126 188 136 188 145 c 0
 184 175 169 187 154 187 c 0
 137 187 120 172 120 154 c 0
EndSplineSet
Colour: ffda6b
EndChar

StartChar: _.mark.tashdid
Encoding: 65652 -1 116
GlifName: _.mark.tashdid
Width: 0
VWidth: 1833
GlyphClass: 2
Flags: HMW
LayerCount: 2
Fore
SplineSet
0 77 m 0
 0 88 2 99 5 111 c 1
 34 132 l 1
 32 122 32 112 32 104 c 0
 32 70 46 53 60 53 c 0
 73 53 86 68 86 97 c 0
 86 108 84 120 80 135 c 1
 109 150 l 1
 121 100 139 82 153 82 c 0
 164 82 172 94 172 112 c 0
 172 126 167 144 154 162 c 1
 183 191 l 1
 204 157 213 125 213 98 c 0
 213 52 187 22 155 22 c 0
 142 22 130 27 116 37 c 1
 100 10 79 -2 60 -2 c 0
 28 -2 0 31 0 77 c 0
EndSplineSet
Colour: ffda6b
EndChar

StartChar: _.mark.hamze
Encoding: 65653 -1 117
GlifName: _.mark.hamze
Width: 0
VWidth: 1841
GlyphClass: 2
Flags: HMW
LayerCount: 2
Fore
SplineSet
110 210 m 0
 149 210 171 175 171 155 c 0
 171 148 168 143 163 143 c 0
 161 143 158 144 154 146 c 0
 147 149 124 155 100 155 c 0
 74 155 40 149 40 124 c 0
 40 91 142 91 195 90 c 1
 193 84 184 70 170 48 c 1
 102 33 48 12 7 -6 c 1
 15 33 l 1
 21 38 38 45 49 49 c 1
 49 52 l 1
 16 62 0 78 0 101 c 0
 0 156 59 210 110 210 c 0
EndSplineSet
Colour: ffda6b
EndChar

StartChar: _.mark.sakon
Encoding: 65654 -1 118
GlifName: _.mark.sakon
Width: 0
VWidth: 2099
GlyphClass: 2
Flags: HMW
LayerCount: 2
Fore
SplineSet
102 200 m 0
 148 200 174 173 174 125 c 0
 174 53 122 -1 41 -1 c 1
 27 13 l 1
 87 46 127 82 144 116 c 1
 131 123 117 125 104 125 c 0
 70 125 38 105 16 76 c 1
 0 82 l 1
 0 165 54 200 102 200 c 0
EndSplineSet
Colour: ffda6b
EndChar

StartChar: _.mark.alef
Encoding: 65655 -1 119
GlifName: _.mark.alef
Width: 0
VWidth: 2091
GlyphClass: 2
Flags: HMW
LayerCount: 2
Fore
SplineSet
0 186 m 1
 46 240 l 1
 60 180 71 110 71 69 c 0
 71 30 40 10 31 -0 c 1
 31 42 20 111 0 186 c 1
EndSplineSet
Colour: ffda6b
EndChar

StartChar: _.sing.momaiez
Encoding: 65656 -1 120
GlifName: _.sing.momaiez
Width: 425
VWidth: 1352
GlyphClass: 2
Flags: HMW
LayerCount: 2
Fore
SplineSet
75 -105 m 1
 297 402 l 1
 350 402 l 1
 124 -115 l 1
 75 -105 l 1
EndSplineSet
Colour: ffda6b
EndChar

StartChar: _.sing.darsad
Encoding: 65658 -1 122
GlifName: _.sing.darsad
Width: 627
VWidth: 1197
GlyphClass: 2
Flags: HMW
LayerCount: 2
Fore
SplineSet
75 631 m 0
 75 673 107 706 150 706 c 0
 197 706 222 667 222 629 c 0
 222 592 199 556 153 556 c 0
 109 556 75 589 75 631 c 0
92 28 m 0
 92 43 96 56 103 65 c 0
 256 298 383 533 484 768 c 0
 490 783 500 791 512 791 c 0
 533 791 544 780 544 757 c 2
 544 753 l 1
 512 659 456 542 380 394 c 0
 304 248 229 126 154 34 c 0
 138 14 124 5 112 5 c 0
 98 5 92 13 92 28 c 0
405 151 m 0
 405 193 438 226 480 226 c 0
 528 226 552 187 552 149 c 0
 552 112 529 76 482 76 c 0
 439 76 405 109 405 151 c 0
EndSplineSet
Colour: ffda6b
EndChar

StartChar: _.sing.mosavi
Encoding: 65659 -1 123
GlifName: _.sing.mosavi
Width: 608
VWidth: 1197
GlyphClass: 2
Flags: HMW
LayerCount: 2
Fore
SplineSet
75 176 m 0
 75 198 84 220 104 220 c 2
 504 220 l 2
 523 220 533 198 533 175 c 0
 533 153 524 130 504 130 c 2
 104 130 l 2
 85 130 75 153 75 176 c 0
75 356 m 0
 75 378 84 400 104 400 c 2
 504 400 l 2
 523 400 533 377 533 354 c 0
 533 332 524 310 504 310 c 2
 104 310 l 2
 85 310 75 333 75 356 c 0
EndSplineSet
Colour: ffda6b
EndChar

StartChar: _.beh_k.init
Encoding: 65661 -1 125
GlifName: _.beh_k.init
Width: 311
VWidth: 1197
GlyphClass: 2
UnlinkRmOvrlpSave: 1
Flags: HMW
LayerCount: 2
Fore
SplineSet
-50 50 m 0
 -50 75 -27 100 -2 100 c 2
 35 100 l 2
 90 100 144 111 181 149 c 1
 172 185 154 232 121 271 c 1
 168 369 l 1
 217 308 236 244 236 187 c 0
 236 140 223 99 204 71 c 0
 172 21 114 0 35 -0 c 2
 -1 -0 l 1
 -26 1 -50 24 -50 50 c 0
EndSplineSet
Colour: ffda6b
EndChar

StartChar: _.beh_k.medi
Encoding: 65662 -1 126
GlifName: _.beh_k.medi
Width: 376
VWidth: 1304
GlyphClass: 2
UnlinkRmOvrlpSave: 1
Flags: HMW
LayerCount: 2
Fore
SplineSet
-50 50 m 0
 -50 76 -26 100 -1 100 c 2
 35 100 l 2
 85 100 134 109 170 139 c 1
 166 158 165 178 165 202 c 0
 165 209 165 217 165 225 c 1
 204 261 l 2
 211 267 216 265 216 256 c 0
 216 139 266 100 376 100 c 1
 376 -0 l 1
 292 0 234 20 200 66 c 1
 167 19 110 0 35 -0 c 2
 -1 -0 l 2
 -26 0 -50 24 -50 50 c 0
EndSplineSet
Colour: ffda6b
EndChar

StartChar: _.sing.3noqte
Encoding: 65663 -1 127
GlifName: _.sing.3noqte
Width: 607
VWidth: 1304
GlyphClass: 2
Flags: HMW
LayerCount: 2
Fore
SplineSet
75 60 m 0
 75 87 97 109 124 109 c 0
 152 109 175 87 175 60 c 0
 175 32 152 10 124 10 c 0
 97 10 75 32 75 60 c 0
238 66 m 0
 238 98 263 124 294 124 c 0
 326 124 352 98 352 66 c 0
 352 35 326 10 294 10 c 0
 263 10 238 35 238 66 c 0
404 74 m 0
 404 110 432 138 468 138 c 0
 504 138 532 110 532 74 c 0
 532 40 504 10 468 10 c 0
 432 10 404 40 404 74 c 0
EndSplineSet
Colour: ffda6b
EndChar

StartChar: s.khat_tire
Encoding: 8208 8208 138
GlifName: s.khat_tire
Width: 504
VWidth: 0
GlyphClass: 2
Flags: HMW
LayerCount: 2
Fore
SplineSet
55 229 m 1
 55 307 l 1
 451 307 l 1
 451 229 l 1
 55 229 l 1
EndSplineSet
Colour: d7d7d7
EndChar

StartChar: s.zwj
Encoding: 8205 8205 174
GlifName: s.zwj
Width: 0
VWidth: 1331
GlyphClass: 2
Flags: HMW
LayerCount: 2
Fore
SplineSet
25 -327 m 1
 -25 -327 l 1
 -25 579 l 1
 -111 491 l 1
 -141 521 l 1
 -30 631 l 1
 -141 740 l 1
 -111 772 l 1
 0 660 l 1
 111 772 l 1
 141 740 l 1
 30 631 l 1
 141 521 l 1
 111 491 l 1
 25 579 l 1
 25 -327 l 1
EndSplineSet
Colour: d7d7d7
EndChar

StartChar: s.tagsim
Encoding: 247 247 182
GlifName: s.tagsim
Width: 564
VWidth: 1278
GlyphClass: 2
Flags: HMW
LayerCount: 2
Fore
SplineSet
59 352 m 1
 59 429 l 1
 506 429 l 1
 506 352 l 1
 59 352 l 1
234 204 m 1
 234 299 l 1
 330 299 l 1
 330 204 l 1
 234 204 l 1
234 482 m 1
 234 577 l 1
 330 577 l 1
 330 482 l 1
 234 482 l 1
EndSplineSet
Colour: d7d7d7
EndChar

StartChar: s.zwnj
Encoding: 8204 8204 215
GlifName: s.zwnj
Width: 0
VWidth: 1331
GlyphClass: 2
Flags: HMW
LayerCount: 2
Fore
SplineSet
-25 -308 m 1
 -25 710 l 1
 25 710 l 1
 25 -308 l 1
 -25 -308 l 1
EndSplineSet
Colour: d7d7d7
EndChar

StartChar: s.dotted_circle
Encoding: 9676 9676 220
GlifName: s.dotted_circle
Width: 576
VWidth: 1890
GlyphClass: 2
Flags: HMW
LayerCount: 2
Fore
SplineSet
60 181 m 0
 60 196 67 203 82 203 c 0
 97 203 104 196 104 182 c 2
 104 180 l 2
 104 166 97 159 82 159 c 0
 67 159 60 166 60 181 c 0
76 103 m 0
 76 118 83 126 98 126 c 0
 113 126 120 118 120 103 c 0
 120 88 113 80 98 80 c 0
 83 80 76 88 76 103 c 0
76 259 m 0
 76 274 83 282 98 282 c 0
 113 282 120 274 120 259 c 0
 120 244 113 236 99 236 c 0
 84 236 76 244 76 259 c 0
120 34 m 0
 120 49 127 56 142 57 c 0
 157 56 164 49 165 34 c 0
 164 19 157 12 142 12 c 0
 127 12 120 19 120 34 c 0
120 326 m 0
 120 341 127 348 142 349 c 0
 157 348 164 341 165 326 c 0
 164 311 157 304 142 304 c 0
 127 304 120 311 120 326 c 0
187 -8 m 0
 187 7 195 14 210 14 c 0
 225 14 233 7 233 -8 c 0
 233 -23 225 -30 210 -30 c 0
 195 -30 187 -23 187 -8 c 0
187 372 m 0
 187 387 195 394 210 394 c 0
 225 394 233 387 233 372 c 0
 233 357 225 350 210 350 c 0
 195 350 187 357 187 372 c 0
310 -26 m 0
 310 -41 303 -48 288 -48 c 0
 273 -48 266 -41 265 -26 c 0
 266 -11 273 -4 288 -3 c 0
 303 -4 310 -11 310 -26 c 0
288 410 m 0
 303 410 310 403 310 388 c 0
 310 373 303 366 288 365 c 0
 273 366 266 373 265 388 c 0
 266 403 273 410 288 410 c 0
344 -8 m 0
 344 7 352 14 367 14 c 0
 382 14 390 7 390 -8 c 0
 390 -22 382 -30 367 -31 c 0
 352 -30 344 -22 344 -8 c 0
344 372 m 0
 344 387 352 394 367 394 c 0
 382 394 390 387 390 372 c 0
 390 358 382 350 367 349 c 0
 352 350 344 358 344 372 c 0
412 34 m 0
 412 49 419 56 434 57 c 0
 449 56 456 49 456 34 c 0
 456 19 449 12 434 12 c 0
 419 12 412 19 412 34 c 0
412 326 m 0
 412 341 419 348 434 349 c 0
 449 348 456 341 456 326 c 0
 456 311 449 304 434 304 c 0
 419 304 412 311 412 326 c 0
456 103 m 0
 456 118 463 126 478 126 c 0
 492 126 500 118 501 103 c 0
 500 88 492 80 478 80 c 0
 463 80 456 88 456 103 c 0
456 259 m 0
 456 274 463 282 478 282 c 0
 492 282 500 274 501 259 c 0
 500 244 492 236 478 236 c 0
 463 236 456 244 456 259 c 0
472 181 m 0
 472 196 479 203 494 203 c 0
 509 203 516 196 517 182 c 2
 517 180 l 2
 516 166 509 159 494 159 c 0
 479 159 472 166 472 181 c 0
EndSplineSet
Colour: d7d7d7
EndChar

StartChar: s.figure_dash
Encoding: 8210 8210 224
GlifName: s.figure_dash
Width: 600
VWidth: 0
GlyphClass: 2
Flags: HMW
LayerCount: 2
Fore
SplineSet
55 229 m 1
 55 307 l 1
 547 307 l 1
 547 229 l 1
 55 229 l 1
EndSplineSet
Colour: d7d7d7
EndChar

StartChar: s.em_dash
Encoding: 8212 8212 263
GlifName: s.em_dash
Width: 1200
VWidth: 1175
GlyphClass: 2
Flags: HMW
LayerCount: 2
Fore
SplineSet
55 229 m 1
 55 307 l 1
 1147 307 l 1
 1147 229 l 1
 55 229 l 1
EndSplineSet
Colour: d7d7d7
EndChar

StartChar: s.bullet
Encoding: 8226 8226 278
GlifName: s.bullet
Width: 602
VWidth: 1331
GlyphClass: 2
Flags: HMW
LayerCount: 2
Fore
SplineSet
532 432 m 0
 532 369 509 315 464 270 c 0
 419 225 365 202 302 202 c 0
 245 202 194 223 147 266 c 0
 100 309 77 357 77 410 c 0
 77 483 99 542 142 585 c 0
 185 628 236 650 295 650 c 0
 368 650 426 630 468 591 c 0
 510 552 532 499 532 432 c 0
EndSplineSet
Colour: d7d7d7
EndChar

StartChar: s.en_dash
Encoding: 8211 8211 310
GlifName: s.en_dash
Width: 600
VWidth: 1175
GlyphClass: 2
Flags: HMW
LayerCount: 2
Fore
SplineSet
55 229 m 1
 55 307 l 1
 547 307 l 1
 547 229 l 1
 55 229 l 1
EndSplineSet
Colour: d7d7d7
EndChar

StartChar: s.horizontal_bar
Encoding: 8213 8213 316
GlifName: s.horizontal_bar
Width: 2400
VWidth: 1175
GlyphClass: 2
Flags: HMW
LayerCount: 2
Fore
SplineSet
55 229 m 1
 55 307 l 1
 2347 307 l 1
 2347 229 l 1
 55 229 l 1
EndSplineSet
Colour: d7d7d7
EndChar

StartChar: s.lrm
Encoding: 8206 8206 317
GlifName: s.lrm
Width: 0
VWidth: 1331
GlyphClass: 2
Flags: HMW
LayerCount: 2
Fore
SplineSet
-25 -308 m 1
 -25 676 l 1
 196 676 l 1
 106 759 l 1
 138 790 l 1
 280 651 l 1
 138 510 l 1
 106 544 l 1
 196 628 l 1
 22 628 l 1
 22 -308 l 1
 -25 -308 l 1
EndSplineSet
Colour: d7d7d7
EndChar

StartChar: s.rlm
Encoding: 8207 8207 346
GlifName: s.rlm
Width: 0
VWidth: 1331
GlyphClass: 2
Flags: HMW
LayerCount: 2
Fore
SplineSet
22 676 m 1
 22 -308 l 1
 -25 -308 l 1
 -25 628 l 1
 -196 628 l 1
 -108 544 l 1
 -138 510 l 1
 -280 651 l 1
 -138 790 l 1
 -108 759 l 1
 -196 676 l 1
 22 676 l 1
EndSplineSet
Colour: d7d7d7
EndChar

StartChar: _.sing.yeh_domBoride
Encoding: 65664 -1 400
GlifName: _.mark.he_yeh
Width: 387
VWidth: 1304
GlyphClass: 1
UnlinkRmOvrlpSave: 1
Flags: HMW
LayerCount: 2
Fore
SplineSet
261 288 m 0
 290 288 299 275 299 248 c 0
 299 236 296 224 290 212 c 1
 272 200 277 226 261 226 c 0
 225 224 217 209 196 182 c 1
 193 169 312 136 312 79 c 0
 312 62 302 44 276 23 c 0
 250 3 207 0 170 -0 c 0
 145 0 120 4 98 11 c 1
 82 23 75 32 75 36 c 0
 75 40 78 42 87 42 c 0
 123 42 248 43 274 69 c 1
 246 100 197 109 171 129 c 0
 159 138 154 151 154 166 c 0
 154 217 213 288 261 288 c 0
EndSplineSet
EndChar

StartChar: uni0000
Encoding: 0 0 401
GlifName: uni0000
Width: 497
VWidth: 0
GlyphClass: 2
Flags: HMW
LayerCount: 2
Fore
SplineSet
59 -251 m 1
 59 709 l 1
 438 709 l 1
 438 -251 l 1
 59 -251 l 1
105 -181 m 1
 387 -181 l 1
 387 648 l 1
 105 648 l 1
 105 -181 l 1
EndSplineSet
EndChar

StartChar: _.ghaf.medi
Encoding: 65665 -1 402
GlifName: _.ghaf.medi
Width: 518
VWidth: 0
GlyphClass: 2
Flags: HMW
LayerCount: 2
Fore
SplineSet
308 132 m 1
 280 34 192 0 68 -0 c 2
 0 -0 l 2
 -26 0 -50 24 -50 50 c 0
 -50 76 -26 100 0 100 c 2
 69 100 l 2
 163 100 218 117 265 151 c 1
 224 270 82 372 18 425 c 0
 6 435 0 449 0 465 c 0
 0 515 49 582 78 596 c 1
 467 718 l 1
 435 614 l 1
 79 503 l 1
 115 474 181 420 231 362 c 0
 344 233 427 100 518 100 c 1
 518 -0 l 1
 434 0 370 59 308 132 c 1
85 651 m 1
 104 705 l 1
 419 800 l 1
 402 748 l 1
 85 651 l 1
EndSplineSet
Colour: ffda6b
EndChar

StartChar: _.ghaf.init
Encoding: 65666 -1 403
GlifName: _.ghaf.init
Width: 542
VWidth: 0
GlyphClass: 2
Flags: HMW
LayerCount: 2
Fore
SplineSet
312 143 m 1
 291 37 194 0 68 -0 c 2
 0 -0 l 2
 -26 0 -50 24 -50 50 c 0
 -50 76 -26 100 0 100 c 2
 69 100 l 2
 163 100 218 117 265 151 c 1
 224 270 82 372 18 425 c 0
 6 435 0 449 0 465 c 0
 0 515 49 582 78 596 c 1
 467 718 l 1
 435 614 l 1
 79 503 l 1
 148 446 318 307 318 183 c 0
 318 170 316 157 312 145 c 1
 312 143 l 1
85 651 m 1
 104 705 l 1
 419 800 l 1
 402 748 l 1
 85 651 l 1
EndSplineSet
Colour: ffda6b
EndChar

StartChar: _.la.isol.fa
Encoding: 65667 -1 404
Width: 548
VWidth: 0
Flags: HMW
LayerCount: 2
Fore
SplineSet
75 100 m 1
 182 100 406 116 406 262 c 0
 406 264 406 266 406 268 c 2
 393 580 l 2
 393 594 394 609 401 621 c 2
 438 689 l 2
 449 707 464 702 464 688 c 2
 473 267 l 2
 473 265 473 262 473 260 c 0
 473 67 327 0 140 -0 c 0
 115 0 97 11 90 42 c 2
 75 100 l 1
108 546 m 1
 145 613 l 2
 156 633 166 625 172 613 c 0
 216 514 238 425 238 348 c 0
 238 262 210 192 155 144 c 1
 139 160 l 1
 158 203 166 250 166 297 c 0
 166 393 134 487 108 546 c 1
EndSplineSet
Colour: ffda6b
EndChar

StartChar: _.la.fina.fa
Encoding: 65668 -1 405
Width: 634
VWidth: 0
Flags: HMW
LayerCount: 2
Fore
SplineSet
75 100 m 1
 182 100 406 116 406 262 c 0
 406 264 406 266 406 268 c 2
 393 580 l 2
 393 594 394 609 401 621 c 2
 438 689 l 2
 449 707 464 702 464 688 c 2
 473 256 l 1
 473 139 524 100 634 100 c 1
 634 -0 l 1
 523 0 458 35 433 114 c 1
 378 32 269 0 140 -0 c 0
 115 0 97 11 90 42 c 2
 75 100 l 1
108 546 m 1
 145 613 l 2
 156 633 166 625 172 613 c 0
 216 514 238 425 238 348 c 0
 238 262 210 192 155 144 c 1
 139 160 l 1
 158 203 166 250 166 297 c 0
 166 393 134 487 108 546 c 1
EndSplineSet
Colour: ffda6b
EndChar

StartChar: _.sing.alef_maad
Encoding: 65671 -1 408
Width: 500
VWidth: 1352
Flags: HMW
LayerCount: 2
Fore
SplineSet
75 -57 m 1
 75 72 153 100 258 100 c 0
 322 100 391 99 409 161 c 1
 425 150 l 1
 423 40 376 0 252 -0 c 0
 240 0 228 0 216 0 c 0
 160 0 110 -7 91 -68 c 1
 75 -57 l 1
EndSplineSet
Colour: ffda6b
EndChar

StartChar: _.sing.star
Encoding: 65672 -1 409
Width: 511
VWidth: 1197
Flags: HMW
LayerCount: 2
Fore
SplineSet
75 496 m 1
 84 496 l 1
 89 482 101 476 121 474 c 0
 174 469 214 445 245 402 c 1
 241 402 l 2
 239 402 237 403 234 403 c 0
 219 403 192 399 171 399 c 0
 113 399 75 438 75 496 c 1
77 290 m 1
 81 296 l 1
 92 296 l 2
 104 296 135 342 141 348 c 0
 163 370 197 382 241 386 c 1
 245 383 l 1
 238 376 231 365 224 351 c 0
 194 298 162 271 128 271 c 0
 114 271 97 276 77 290 c 1
204 522 m 0
 204 558 223 584 257 601 c 1
 261 594 l 1
 256 589 254 582 254 573 c 0
 254 562 274 515 276 509 c 0
 277 504 277 494 277 477 c 0
 277 461 272 439 260 409 c 1
 254 409 l 1
 253 410 245 425 229 452 c 0
 213 480 204 504 204 522 c 0
234 309 m 0
 234 327 240 350 254 378 c 1
 260 378 l 1
 272 353 283 332 294 316 c 0
 304 300 309 282 309 264 c 0
 309 230 291 204 257 186 c 1
 252 193 l 1
 256 197 258 202 258 209 c 0
 258 218 237 270 235 276 c 0
 235 281 234 291 234 309 c 0
268 383 m 1
 272 388 l 1
 282 387 292 386 306 386 c 2
 342 386 l 2
 397 386 436 348 436 293 c 2
 436 290 l 1
 427 290 l 1
 423 302 405 310 373 310 c 0
 341 310 306 334 268 383 c 1
268 404 m 1
 299 442 311 513 379 513 c 0
 400 513 419 508 436 497 c 1
 431 490 l 1
 411 490 396 479 386 458 c 1
 356 419 319 400 272 400 c 1
 268 404 l 1
EndSplineSet
Colour: ffda6b
EndChar

StartChar: _.sing.zarb
Encoding: 65673 -1 410
Width: 517
VWidth: 1279
Flags: HMW
LayerCount: 2
Fore
SplineSet
75 363 m 0
 75 387 105 416 128 416 c 0
 134 416 139 415 144 410 c 2
 259 296 l 1
 371 410 l 2
 376 415 382 416 388 416 c 0
 412 416 442 387 442 363 c 0
 442 357 440 351 435 346 c 2
 322 232 l 1
 428 127 l 2
 433 122 435 116 435 110 c 0
 435 87 405 57 382 57 c 0
 376 57 370 59 365 64 c 2
 259 170 l 1
 152 63 l 2
 147 58 142 56 136 56 c 0
 112 56 82 86 82 110 c 0
 82 116 84 122 89 127 c 2
 195 232 l 1
 82 346 l 2
 77 351 75 357 75 363 c 0
EndSplineSet
Colour: ffda6b
EndChar

StartChar: _.sing.khateh_amoodi
Encoding: 65674 -1 411
Width: 240
VWidth: 1331
Flags: HMW
LayerCount: 2
Fore
SplineSet
75 29 m 2
 75 320 l 2
 75 339 97 349 120 349 c 0
 142 349 165 340 165 320 c 2
 165 29 l 2
 165 10 142 1 120 1 c 0
 98 1 75 10 75 29 c 2
75 480 m 2
 75 770 l 2
 75 789 97 800 120 800 c 0
 142 800 165 790 165 770 c 2
 165 480 l 2
 165 461 142 451 120 451 c 0
 98 451 75 461 75 480 c 2
EndSplineSet
Colour: ffda6b
EndChar

StartChar: _.num.0.fa
Encoding: 65675 -1 412
Width: 373
VWidth: 1424
Flags: HW
LayerCount: 2
Fore
SplineSet
191 187 m 0
 112 187 75 256 75 322 c 0
 75 391 114 460 187 460 c 0
 259 460 298 387 298 317 c 0
 298 251 264 187 191 187 c 0
139 323 m 0
 139 294 155 264 186 264 c 0
 218 264 233 293 233 322 c 0
 233 352 217 382 186 383 c 0
 155 383 139 353 139 323 c 0
EndSplineSet
Colour: ffda6b
EndChar

StartChar: _.num.0.ar
Encoding: 65676 -1 413
Width: 372
VWidth: 1352
Flags: HW
LayerCount: 2
Fore
SplineSet
75 241 m 1
 118 271 156 308 186 352 c 1
 212 305 248 268 297 241 c 1
 256 211 218 176 186 130 c 1
 156 177 118 213 75 241 c 1
EndSplineSet
Colour: ffda6b
EndChar
